<svg xmlns="http://www.w3.org/2000/svg" width="746" height="834" fill="none"><path fill="#ED9AC9" d="M504.493 508.492a36.305 36.305 0 0 0-3.122.222c-4.058.462-8.013 1.31-11.965 2.233a200.27 200.27 0 0 1-9.725 2.07c-3.739.586-7.506 1.218-11.258 1.401-4.126.21-8.226.269-12.329.284a839.35 839.35 0 0 0 8.121-9.892c3.268-4.015 6.321-8.187 9.435-12.316a348.7 348.7 0 0 1 5.102-6.515 4.7 4.7 0 0 0 .624.309c2.064.846 4.127 1.662 6.218 2.432 4.649 2.063 9.09 4.613 13.302 7.499 5.475 3.983 10.894 8.042 16.412 11.949.582.415 1.164.8 1.761 1.2-4.18-.537-8.388-1.013-12.576-.876Zm-12.64 15.474c-2.301 1.962-4.571 3.968-6.857 5.959-4.018 3.5-8.145 6.884-12.241 10.281a388.445 388.445 0 0 1-12.1 9.544c-4.355 3.256-8.869 6.233-13.429 9.182-4.151 2.651-8.505 5.024-12.861 7.338-4.548 2.409-9.049 4.877-13.66 7.199-2.716 1.182-5.457 2.065-8.373 2.639a30.707 30.707 0 0 1-6.207.203 40.95 40.95 0 0 1-3.615-.675c3.388-3.973 6.761-7.961 10.165-11.935 2.725-3.188 5.435-6.391 8.268-9.508 2.689-2.932 5.501-5.764 8.159-8.74 5.534-6.11 10.868-12.423 16.403-18.518 1.012-1.111 1.992-2.251 2.989-3.376 1.045 1.283 2.673 2.083 4.44 2.085 5.316.021 10.615-.033 15.924-.221 4.441-.161 8.931-.682 13.344-1.26 3.802-.499 7.585-1.117 11.385-1.675-.584.483-1.166.981-1.734 1.478Zm-6.335-35.274.03-.001a2.696 2.696 0 0 1-.212-.083l.182.084ZM721.041 17.913c.228-.337.472-.66.701-.981-2.593 3.573-5.263 7.074-8.209 10.374-1.487 1.695-3.005 3.362-4.6 4.956-1.216 1.253-2.572 2.39-3.912 3.512-1.958 1.501-3.872 2.941-6.051 4.075a28.998 28.998 0 0 1-5.203 1.593c-1.193.144-2.39.183-3.59.117a23.146 23.146 0 0 1-4.165-1.016c-1.413-.628-2.727-1.408-3.998-2.295-1.49-1.134-2.849-2.392-4.179-3.695a170.69 170.69 0 0 1 3.071-2.706c2.671-2.109 5.406-4.1 8.233-6.003 2.666-1.81 5.599-3.238 8.503-4.635 2.317-1.004 4.634-2.038 7.018-2.865 2.679-.94 5.363-1.747 8.127-2.377 1.878-.27 3.744-.452 5.647-.394 1.264.198 2.501.472 3.725.806-.373.507-.746 1.013-1.118 1.534Zm21.114-5.886c-3.706-5.253-9.576-8.49-15.542-10.51-3.467-1.174-7.299-1.618-10.949-1.498l-.194.006c-2.049.082-4.085.553-6.11.889-1.087.185-2.188.4-3.255.735-3.795 1.157-7.399 2.668-11.029 4.313-3.821 1.742-7.684 3.545-11.218 5.832a99.42 99.42 0 0 0-10.278 7.582c-6.12 5.156-11.714 10.819-17.09 16.743-2.615 2.886-5.185 5.8-7.847 8.641-2.589 2.78-5.318 5.414-8.078 8.004-5.972 5.555-12.161 10.878-18.366 16.201a662.156 662.156 0 0 0-17.868 15.826c-5.597 5.138-10.883 10.596-16.371 15.836-11.486 10.945-22.985 21.906-34.984 32.27a1438.524 1438.524 0 0 0-9.128 7.934c-3.012 2.658-5.87 5.476-8.712 8.294-5.626 5.604-11.052 11.381-16.679 16.969-5.38 5.341-11.007 10.451-16.433 15.764a423.057 423.057 0 0 0-16.276 16.911c-4.191 4.598-8.198 9.356-12.112 14.2-4.044 4.998-7.782 10.195-11.504 15.422a113.606 113.606 0 0 1-6.462 7.952c-2.571 2.883-5.204 5.709-7.729 8.621-2.539 2.943-5.031 5.929-7.617 8.813-2.615 2.915-5.307 5.728-7.999 8.571a415.42 415.42 0 0 1-16.441 16.452c-5.605 5.319-11.428 10.42-16.645 16.145-4.337 4.738-8.473 9.679-12.934 14.286-2.042 2.088-4.163 4.074-6.206 6.162-1.477 1.53-2.815 3.206-4.385 4.65-1.576 1.249-3.136 2.528-4.572 3.967-2.03 2.013-4.123 3.937-6.262 5.834a252.382 252.382 0 0 1-8.147 6.345c-2.953 2.192-5.999 4.268-8.859 6.563-6.434 5.166-12.651 10.549-18.648 16.24-11.24 10.683-22.539 21.353-34.432 31.293-4.955 4.145-9.894 8.319-14.726 12.579-4.613 4.058-9.211 8.131-13.918 12.088-12.037 9.646-24.496 18.752-36.798 28.077-6.34 4.819-12.726 9.624-18.988 14.56-6.218 4.904-12.372 9.911-18.573 14.875-6.216 4.979-12.463 9.9-18.882 14.616-6.214 4.56-12.617 8.856-19.036 13.094-6.654 4.394-13.292 8.804-19.868 13.286-6.503 4.434-13.085 8.737-19.526 13.244-6.352 4.445-12.666 9.158-19.667 12.546-3.597 1.734-7.227 3.38-10.76 5.233-3.444 1.804-6.713 3.947-9.983 6.03-6.469 4.119-12.715 8.606-19.12 12.827-3.4 2.238-6.739 4.548-10.091 6.888-3.279 2.293-6.557 4.616-9.993 6.675-5.947 3.578-11.973 7.024-17.967 10.529a270.79 270.79 0 0 1-8.116 4.562c-1.265.685-2.53 1.355-3.795 2.07-1.132.651-2.224 1.57-3.014 2.614C1.055 597.891.4 598.915.18 600.45c-.055.615-.125 1.216-.18 1.817.073.851.235 1.684.5 2.484.827 2.832 3.645 4.761 6.562 4.666 2.004-.066 4.123-1.183 5.325-2.884 2.633-1.434 5.14-3.073 7.693-4.669 3.14-1.974 6.28-3.918 9.468-5.789 3.643-2.155 7.302-4.266 10.914-6.435 3.613-2.155 7.117-4.44 10.573-6.814 6.444-4.403 12.95-8.718 19.394-13.135 6.648-4.56 13.345-9.031 20.308-13.106 3.13-1.824 6.418-3.369 9.612-5.045 3.356-1.772 6.602-3.69 9.722-5.828 6.693-4.561 13.183-9.399 19.844-14.019 6.705-4.65 13.394-9.346 20.131-13.953 6.355-4.37 12.821-8.563 19.114-13.006 6.41-4.522 12.569-9.394 18.714-14.251 6.392-5.075 12.784-10.135 19.16-15.239 12.316-9.82 24.897-19.289 37.417-28.831 4.017-3.051 8.113-6 12.162-9.022 4.296-3.224 8.592-6.479 12.857-9.747 8.734-6.709 16.921-14.133 25.358-21.221 4.361-3.556 8.722-7.097 13.082-10.668 4.768-3.914 9.396-7.988 14.039-12.062 4.031-3.546 8.078-7.062 12.079-10.621 3.973-3.528 7.945-7.057 11.995-10.468a361.098 361.098 0 0 1 9.301-7.251c2.864-2.145 5.854-4.114 8.767-6.17 6.82-4.805 13.483-9.814 19.508-15.58.784-.759 1.584-1.489 2.29-2.321.749-.892 1.376-1.886 2.11-2.793 2.258-2.829 4.809-5.398 7.314-8.01 5.256-5.457 10.159-11.216 15.292-16.774a309.046 309.046 0 0 1 8.704-8.998c2.726-2.709 5.546-5.316 8.288-7.996 5.499-5.36 10.707-10.935 15.805-16.671 2.483-2.806 5.013-5.584 7.435-8.418 2.509-2.956 4.986-5.942 7.542-8.84 2.569-2.929 5.17-5.798 7.709-8.741 2.394-2.788 4.665-5.677 6.86-8.623 2.337-3.161 4.689-6.337 7.133-9.411 2.43-3.074 4.968-6.061 7.474-9.077 5-5.988 10.201-11.772 15.54-17.456 10.576-11.26 22.191-21.461 32.922-32.577 5.619-5.828 11.269-11.597 17.29-17.034 5.643-5.095 11.596-9.856 17.269-14.922 11.842-10.583 23.542-21.356 34.825-32.549 5.655-5.62 11.405-11.108 17.339-16.437 5.891-5.298 11.892-10.42 17.892-15.587 6.014-5.182 12.149-10.323 17.682-16.029 4.491-4.608 8.827-9.361 13.365-13.911 1.532 1.507 3.092 2.968 4.811 4.274a40.642 40.642 0 0 0 3.89 2.657c1.421.852 2.996 1.4 4.541 1.948 2.56.919 5.312 1.278 8.022 1.264 1.467-.003 2.909-.304 4.338-.56a30.87 30.87 0 0 0 3.637-.958c3.733-1.245 6.938-3.491 9.958-5.925 2.043-1.64 4.009-3.305 5.85-5.162 3.145-3.202 6.024-6.71 8.753-10.272a158.526 158.526 0 0 0 4.571-6.258c.158.25.316.498.459.763.116.34.232.681.318 1.023.05.597.084 1.195.073 1.78-.182.829-.41 1.63-.669 2.431-.81 1.779-1.79 3.398-2.874 5.035-1.229 1.807-2.503 3.585-3.732 5.392-2.701 3.92-5.373 7.84-8.151 11.72.058-.077.101-.139.158-.215-4.355 6.026-8.71 12.037-13.326 17.847a363.154 363.154 0 0 1-8.109 9.802c-2.566 3.019-5.286 5.922-7.899 8.897-2.454 2.79-4.831 5.653-7.3 8.428-2.831 3.162-5.708 6.295-8.54 9.442-5.359 5.969-10.688 11.982-15.863 18.095-2.45 2.91-4.808 5.906-7.211 8.859-2.664 3.247-5.343 6.478-7.977 9.738-4.949 6.136-9.591 12.53-14.356 18.825-4.895 6.463-10.156 12.668-15.481 18.786-5.151 5.947-10.271 11.909-15.191 18.043-4.963 6.196-9.464 12.766-13.86 19.377-2.183 3.29-4.396 6.567-6.411 9.971-1.036 1.741-2.028 3.465-2.957 5.277-.999 1.949-1.848 3.923-2.71 5.942-.764 1.822-1.36 3.728-2.018 5.606a44.029 44.029 0 0 0-1.439 4.972c-.46 1.947-.877 3.862-1.187 5.818-.334 2.137-.458 4.312-.612 6.458a81.264 81.264 0 0 0-.203 6.624c.054 3.471.66 6.895 1.251 10.304.238 1.339.507 2.678.79 4.016-.741-.215-1.493-.34-2.241-.316-2.274.074-4.45 1.284-5.608 3.432a6.586 6.586 0 0 0-.505 5.137l.724 1.548a6.556 6.556 0 0 0 2.441 2.301 51.865 51.865 0 0 0 9.323 5.339c3.615 1.573 7.313 2.919 11.038 4.205 6.073 2.092 12.13 4.169 18.134 6.458 3.002 1.144 6.003 2.274 8.991 3.418 3.214 1.228 6.427 2.425 9.751 3.319 3.005.8 6.104 1.238 9.188 1.691 3.355.474 6.736.842 10.102 1.211 1.503.176 3.005.321 4.507.482 4.627.477 9.199 1.091 13.765 1.989 4.16.837 8.305 2.139 12.291 3.61a45.782 45.782 0 0 1 8.336 4.459 319.898 319.898 0 0 1 7.858 6.315c3.832 3.183 7.678 6.306 10.96 10.046a49.35 49.35 0 0 1 4.939 7.728 26.524 26.524 0 0 1 1.371 4.372c.086.82.143 1.627.14 2.45a25.52 25.52 0 0 1-.931 3.594c-.136.394-.273.788-.425 1.182l.001.03c-1.018 2.309-2.142 4.546-3.465 6.685-1.251 2.032-2.609 3.993-3.968 5.939-4.518 6.061-9.236 11.95-13.801 17.968-3.057 4.022-6.007 8.131-8.942 12.254-.25-.321-.5-.642-.749-.948-1.902-2.288-3.873-4.41-6.195-6.28-4.829-3.914-10.162-7.198-15.322-10.682-4.977-3.37-10.009-6.619-15.2-9.683-5.435-3.191-10.711-6.581-15.932-10.108-6.598-4.425-12.983-9.172-19.537-13.643-3.308-2.257-6.687-4.408-10.067-6.558-3.089-1.979-6.092-4.052-9.081-6.17-4.686-3.649-9.242-7.453-13.885-11.163a4009.337 4009.337 0 0 1-17.409-14.027c-.846-.691-1.875-1.047-2.892-1.014a3.692 3.692 0 0 0-2.597 1.193c-1.36 1.452-1.451 4.15.179 5.474 8.629 6.993 17.3 13.911 25.713 21.166 3.759 3.245 7.649 6.367 11.712 9.258 3.954 2.79 7.923 5.565 11.863 8.37 7.106 5.322 13.997 10.92 21.119 16.241a526.378 526.378 0 0 0 12.482 9.009c3.494 2.43 7.029 4.785 10.493 7.232 4.007 3.013 7.955 6.072 11.946 9.086 2.057 1.549 4.1 3.114 6.085 4.756 1.939 1.583 3.63 3.399 5.308 5.261 1.063 1.372 2.082 2.776 2.971 4.304a41.056 41.056 0 0 1 1.58 3.002c1.09 2.63 1.718 5.349 2.288 8.13.322 2.085.569 4.143.489 6.257-.395 2.588-1.152 5.068-2.03 7.522a54.018 54.018 0 0 1-4.02 7.093 21.71 21.71 0 0 1-1.937 2.129 29.446 29.446 0 0 1-3.273 2.009 52.003 52.003 0 0 1-6.485 2.233c-2.597.714-5.246 1.205-7.862 1.784-2.2.491-4.399 1.012-6.581 1.578a119.948 119.948 0 0 0 3.889-4.693c3.09-3.949 5.378-8.59 6.99-13.344 1.01-2.982 1.871-5.96 2.157-9.113.298-3.259-.245-6.564-1.066-9.711-.462-1.752-1.205-3.419-1.933-5.072a38.664 38.664 0 0 0-2.762-5.225c-1.09-1.746-2.459-3.318-3.797-4.861-3.531-4.046-7.9-7.137-12.524-9.8-3.189-1.827-6.435-3.577-9.582-5.481-6.186-3.734-12.016-8.02-18.116-11.878-5.856-3.7-11.839-7.173-17.836-10.614-4.532-2.607-9.006-5.26-13.608-7.729-4.952-2.623-10.015-4.972-14.91-7.687-4.392-2.446-8.515-5.335-12.806-7.905-2.473-1.461-4.947-2.922-7.391-4.414-2.339-1.45-4.605-2.993-6.843-4.566a538.43 538.43 0 0 0-13.27-9.283c-.719-.485-1.684-.678-2.626-.647a5.781 5.781 0 0 0-1.475.243c-1.319.402-2.426 1.337-3.091 2.541a5.379 5.379 0 0 0-.39 4.085c.436 1.423 1.348 2.291 2.542 3.091 2.006 1.371 4.057 2.727 6.035 4.144a699.62 699.62 0 0 1 8.531 6.308c3.162 2.382 6.483 4.564 9.774 6.762 5.816 3.866 11.361 8.146 17.235 11.951 5.889 3.805 12.105 7.06 18.009 10.864 5.995 3.846 12.032 7.616 18.071 11.401 6.71 4.211 13.48 8.376 20.261 12.451 3.253 1.945 6.618 3.661 10.011 5.317 3.986 1.935 8.09 3.807 11.779 6.276a45.274 45.274 0 0 1 6.131 5.713c1.659 2.177 3.038 4.512 4.271 6.957a29.781 29.781 0 0 1 1.522 4.891c.071.776.096 1.538.061 2.318-.357 2.347-1.018 4.585-1.722 6.853-1.206 2.944-2.567 5.743-4.366 8.407-3.43 4.559-7.537 8.541-11.722 12.406-4.245 3.911-8.164 8.142-12.253 12.198-8.062 8.049-15.272 16.938-23.892 24.406-3.136 2.528-6.392 5.06-9.984 6.929-1.538.604-3.097 1-4.703 1.337-3.683.465-7.341.315-11.048.047-2.163-.214-4.342-.457-6.481-.851-2.878-.535-5.83-1.067-8.574-2.115a82.208 82.208 0 0 1-3.142-1.304c-1.55-.683-3.013-1.474-4.521-2.263-2.195-1.17-4.277-2.569-6.344-3.984-2.779-2.11-5.473-4.357-8.239-6.512-3.488-2.731-7.107-5.352-10.726-7.943-3.035-2.176-6.43-3.892-9.792-5.489-2.129-1.023-4.347-1.983-6.599-2.628a.846.846 0 0 0-.181-.054c.662-.815 1.324-1.63 1.971-2.445a95.814 95.814 0 0 0 4.353-6.071c1.97-2.954 3.251-6.334 4.203-9.749.012-.09.039-.181.051-.271 1.556-.5 3.112-.985 4.671-1.366 1.382-.344 2.763-.674 4.144-1.034a26.682 26.682 0 0 1 2.187-.415c1.776-.193 3.536-.386 5.331-.459a49.473 49.473 0 0 1 5.168.085c2.738.39 5.322 1.128 7.942 2.016 2.959 1.205 5.818 2.549 8.664 3.968 2.557 1.264 4.974 2.846 7.348 4.46a6.557 6.557 0 0 0 1.773 2.937c1.05.983 2.218 1.424 3.527 1.636.341.348.696.681 1.023 1.044 2.184 2.699 4.266 5.46 6.187 8.346a403.972 403.972 0 0 1 3.625 5.556c1.373 2.141 2.752 4.461 4.737 6.118 1.817 1.512 4.27 1.911 6.339.616 2.449-1.563 3.093-4.758 1.636-7.21-.84-1.425-1.607-2.897-2.462-4.321-.728-1.189-1.471-2.377-2.198-3.566a176.282 176.282 0 0 0-3.862-5.907c1.752.003 3.532-.041 5.312-.114.987-.032 1.973-.08 2.976-.097 1.227-.026 2.45-.17 3.66-.255 2.226-.148 4.437-.31 6.644-.562a58.968 58.968 0 0 0 6.817-1.241c2.304-.539 4.441-1.567 6.563-2.595 2.211-1.075 4.133-2.74 5.858-4.488 2.159-2.182 2.415-5.798.804-8.351-1.342-2.126-3.715-3.261-6.078-3.184a6.93 6.93 0 0 0-3.41 1.025c-1.878 1.169-3.803 2.295-5.776 3.303-2.38.961-4.815 1.579-7.33 2.051-4.768.695-9.536.956-14.335 1.173-4.591.195-9.193.031-13.767-.208-2.087-1.549-4.305-2.974-6.489-4.294-2.109-1.294-4.302-2.42-6.537-3.484.686-5.577 1.341-11.168 1.862-16.754.257-2.673.498-5.361.725-8.033.23-2.583.431-5.135.302-7.72-.108-2.362-1.732-4.42-4.056-4.973a4.888 4.888 0 0 0-1.397-.149 5.4 5.4 0 0 0-2.654.806c-1.071.679-2.137 1.941-2.334 3.25-.514 3.52-.742 7.061-1.015 10.618-.231 3.002-.493 6.004-.754 9.007-.358 3.246-.745 6.492-1.119 9.723-4.299-1.446-8.957-1.923-13.489-1.774-.269.009-.538.017-.807.041-3.453.158-6.818.747-10.225 1.398a55.675 55.675 0 0 0-3.788.917c.256-5.428-.192-10.893-1.367-16.139-.578-2.571-3.435-4.304-5.947-4.222-3.111.102-6.147 2.956-5.816 6.209.268 2.701.625 5.384.818 8.088.191 2.628.112 5.251-.026 7.875-.202 1.624-.434 3.233-.816 4.818a59.28 59.28 0 0 1-1.592 5.337c-.922 2.021-2.046 3.839-3.289 5.661a282.002 282.002 0 0 1-6.714 8.499c-1.583.112-3.105.746-4.156 2.023-5.916 7.26-11.587 14.691-17.319 22.08-2.515 3.226-5.23 6.294-7.915 9.346-2.714 3.068-5.367 6.179-8.036 9.276-5.281 6.086-10.793 11.956-16.136 17.999-5.414 6.136-11.166 11.998-16.564 18.148-7.579 8.632-14.832 17.583-22.056 26.502a170.907 170.907 0 0 1-22.965 23.448c-4.423 3.468-9.062 6.764-14.068 9.338-5.272 2.703-10.688 5.126-16.04 7.666a131.25 131.25 0 0 1-9.382 3.826c-3.699 1.348-7.528 2.402-11.279 3.543a362.95 362.95 0 0 1-10.504 2.948c-3.25.87-6.523 1.516-9.814 2.088-6.069.753-12.146 1.266-18.177 2.287.656-.112 1.311-.208 1.951-.334-8.577 1.449-17.322 2.783-25.404 6.101-8.465 3.481-16.42 7.934-24.309 12.563-14.955 8.784-29.878 17.611-44.39 27.113a601.677 601.677 0 0 0-17.781 12.11c-5.852 4.174-11.517 8.581-17.198 12.989-11.607 9.033-22.933 18.446-34.245 27.829a7173.614 7173.614 0 0 0-16.548 13.641c.073-.062.146-.124.234-.187-.146.11-.292.234-.423.343-.452.374-.904.748-1.342 1.107.059-.047.132-.109.205-.156a10.39 10.39 0 0 0-.423.328.452.452 0 0 0 .102-.078c-.044.031-.088.077-.146.124-.087.078-.175.141-.262.218-.365.297-.73.593-1.08.889-6.733 5.595-13.374 11.307-19.984 17.047-6.64 5.742-13.403 11.353-20.09 17.051-12.906 10.977-25.188 22.727-37.318 34.562-1.61 1.58-3.207 3.144-4.817 4.709-.624.604-1.264 1.194-1.888 1.798-.828.776-1.741 1.689-2.247 2.709a15.16 15.16 0 0 0-1.295 2.992 60.892 60.892 0 0 0-.279 2.898c-.191 2.387 1.702 4.885 3.699 5.957 2.729 1.498 6.38.989 8.49-1.37 1.747-1.959 3.8-3.703 5.688-5.531a378.597 378.597 0 0 1 5.055-4.732c3.445-3.167 6.951-6.291 10.412-9.443 7.052-6.414 14.166-12.755 21.48-18.908 5.28-4.305 10.62-8.581 15.946-12.843 5.733-4.604 11.358-9.324 17.03-14.016-.234.187-.467.389-.7.577.393-.328.787-.655 1.18-.967.175-.156.365-.311.554-.467-.145.124-.277.233-.408.342 12.831-10.555 25.925-20.82 38.959-31.127 13.69-10.823 27.425-21.662 41.835-31.521 14.104-9.639 28.506-18.823 42.957-27.92 7.335-4.611 14.593-9.325 21.928-13.937 7.203-4.532 14.438-9.021 22.069-12.848 3.763-1.666 7.595-3.078 11.587-4.167 4.512-1.226 9.063-2.153 13.664-2.948 4.199-.706 8.382-1.442 12.561-2.297 3.823-.784 7.65-1.882 11.386-3.022 8.168-2.498 16.369-4.908 24.207-8.338 4.252-1.846 8.388-4.032 12.543-6.085 3.669-1.811 7.34-3.563 10.866-5.61 7.538-4.364 14.307-9.825 20.765-15.636 6.094-5.484 11.878-11.287 17.276-17.452.087-.108.188-.216.274-.324 5.325 1.652 10.765 2.732 16.421 2.143 3.73-.377 7.322-1.348 10.811-2.705 1.419-.555 2.805-1.229 4.193-1.828 2.774-1.229 5.486-2.56 8.229-3.848 2.344-1.11 4.704-2.205 7.031-3.374 4.788-2.387 9.51-4.952 14.06-7.766a324.475 324.475 0 0 0 7.466-4.751c2.375-1.544 4.669-3.281 6.979-4.959 5.749-4.14 11.34-8.515 16.917-12.875 3.257-2.532 6.435-5.151 9.597-7.799 1.385-1.153 2.8-2.308 4.169-3.475 1.615-1.415 3.13-2.723 4.206-4.614.751-1.297.878-2.918.456-4.357.031.014.061.013.105.012 2.887.369 5.747.83 8.608 1.335 3.359.594 6.74.962 10.132 1.225 2.672.212 5.401.318 8.077.2a50.933 50.933 0 0 0 4.284-.41c1.103-.155 2.355-.331 3.436-.681a61.309 61.309 0 0 0 2.752-1.018 6.453 6.453 0 0 0 2.787-1.753c.174-.185.316-.415.474-.614 3.094.288 6.215.5 9.3.504 1.992.009 3.966-.04 5.939-.165 5.079-.346 10.08-1.722 14.569-4.1 3.37-1.802 6.319-4.563 9.203-7.008 5.26-4.439 9.835-9.679 14.368-14.827 4.548-5.164 9.003-10.4 13.535-15.564 1.141-1.28 2.266-2.589 3.392-3.884.511.522 1.096 1.012 1.751 1.365 1.814.989 3.611.975 5.588.536 6.11-1.323 11.997-3.522 18.006-5.23 2.803-.796 5.624-1.547 8.379-2.46 3.214-1.064 6.31-2.527 9.235-4.21 2.145-1.238 4.081-2.933 5.743-4.754 1.561-1.728 2.811-3.79 4.049-5.762a43.393 43.393 0 0 0 4.229-8.956c.697-2.044 1.349-4.071 1.789-6.197.583-2.759.713-5.637.472-8.444-.325-3.523-.948-7.005-1.72-10.453-.262-1.145-.688-2.269-1.158-3.361 1.72-2.362 3.424-4.738 5.128-7.114-.058.076-.115.168-.172.245.072-.092.129-.184.215-.292.186-.275.372-.536.572-.812-.171.26-.358.491-.53.736a262.486 262.486 0 0 1 12.004-15.229c4.34-5.098 8.847-10.126 12.803-15.54 2.135-2.929 4.314-5.89 5.853-9.189.013-.046.042-.091.055-.137.085-.152.155-.304.224-.471a69.532 69.532 0 0 0 2.104-5.264c1.452-4.135.886-8.607.001-12.77-.461-2.186-1.412-4.266-2.39-6.255a49.586 49.586 0 0 0-2.829-4.983c-1.229-1.891-2.65-3.671-4.128-5.374-1.339-1.543-2.722-3.085-4.263-4.427a638.124 638.124 0 0 0-7.608-6.473 234.871 234.871 0 0 0-7.365-5.897c-2.903-2.225-5.989-4.115-9.301-5.594-2.447-1.103-4.99-1.933-7.518-2.793-2.74-.914-5.521-1.691-8.329-2.407-2.779-.718-5.651-1.088-8.48-1.534-3.039-.455-6.117-.714-9.182-1.032-2.885-.31-5.772-.68-8.644-1.065a140.287 140.287 0 0 1-8.278-1.301c-2.757-.524-5.404-1.335-8.04-2.267-4.293-1.716-8.601-3.431-12.923-5.087.046.014.076.028.106.027-.364-.138-.743-.275-1.107-.428-4.2-1.599-8.399-3.168-12.666-4.541-4.297-1.371-8.578-2.698-12.819-4.192-1.488-.625-2.961-1.265-4.435-1.905-.119-.446-.268-.89-.373-1.351-.315-1.382-.556-2.796-.811-4.195a179.023 179.023 0 0 1-.774-6.248c-.386-3.565-.142-7.106.175-10.665.429-2.918.934-5.794 1.618-8.676.63-2.715 1.607-5.337 2.524-7.972a128.261 128.261 0 0 1 2.9-6.548c1.081-2.191 2.344-4.313 3.67-6.363 2.694-4.145 5.527-8.175 8.405-12.177a404.422 404.422 0 0 1 14.69-18.716c5.057-6.064 10.315-11.94 15.464-17.932 5.366-6.224 10.347-12.795 15.268-19.363 4.806-6.4 9.66-12.712 14.774-18.868 9.954-11.974 20.262-23.689 31.033-34.94 2.953-3.091 5.907-6.182 8.767-9.36 2.544-2.808 5.056-5.645 7.631-8.409 5.511-5.914 10.853-11.958 15.901-18.29a854.975 854.975 0 0 0 14.578-18.937c2.581-3.483 5.07-7.038 7.589-10.579 2.191-3.066 4.518-6.061 6.372-9.355 1.076-1.892 1.786-3.996 2.498-6.026.988-2.757 1.079-5.904.686-8.765-.427-2.98-1.416-5.763-3.159-8.25Z"/></svg>