<svg xmlns="http://www.w3.org/2000/svg" width="625" height="787" fill="none"><path fill="#0007B0" d="M.013 291.623c17.875-8.315 40.197-8.75 56.812-6.244 9.791 1.477 24.313 5.508 39.464 20.743C109.095 319 121.892 339.418 133 371.899c3.851-3.132 8.62-6.491 14.441-9.906 9.964-5.844 20.233-11.433 31.841-14.498 11.868-3.135 24.678-3.531 39.816.16 15.119 3.685 23.949 9.079 30.855 16.424 3.082 3.277 5.647 6.813 7.975 10.02l.243.335c2.473 3.406 4.891 6.716 8.025 10.238 4.755 5.345 8.423 12.754 11.452 21.424 3.073 8.796 5.732 19.61 8.099 32.356 4.732 25.486 8.469 59.66 11.77 102.808l.034.448-.006.449c-.13 9.71.623 25.379 3.286 40.39 1.329 7.498 3.094 14.592 5.348 20.593a65.331 65.331 0 0 0 1.248 3.089c13.716-17.047 31.751-40.714 48.945-65.802 21.242-30.995 40.633-63.351 49.391-87.883l.096-.27.112-.265c15.108-35.697 22.047-53.526 27.822-68.363 8.391-21.557 14.329-36.813 39.294-91.398.955-4.958 2.675-10.772 4.495-16.704.42-1.37.85-2.76 1.286-4.171 1.706-5.513 3.512-11.348 5.205-17.523 4.273-15.584 7.435-32.017 5.97-47.041-2.134-21.884-1.92-57.992.244-91.609 1.086-16.869 2.676-33.323 4.754-47.25 2.028-13.582 4.662-25.823 8.223-33.558 7.065-15.343 19.018-24.31 30.339-29.047 10.893-4.558 22.279-5.632 29.434-3.931C576.44 4.6 607.86 23.105 615.194 78.04c8.879 58.396 20.089 206.072-9.934 336.227l-.144.625-83.464 225.196-61.285 146.363C203.937 766.343 1.866 552.78.013 291.623Z"/><path fill="#ED9AC9" d="M99.368 587.196a502.343 502.343 0 0 0 17.277 21.811c4-29.695 8.637-65.896 11.561-94.523 2.456-24.051 4.519-51.514 5.965-72.914a3390.877 3390.877 0 0 0 1.685-26.463c.195-3.269.345-5.87.446-7.656l.154-2.762-9.985-.542-9.985-.541-.152 2.713c-.1 1.767-.249 4.349-.442 7.597-.388 6.496-.956 15.657-1.676 26.305-1.44 21.319-3.485 48.517-5.907 72.231-2.29 22.428-5.656 49.655-8.941 74.744Zm171.746 145.453a498.173 498.173 0 0 0 18.757 9.183c4.465-27.72 14.402-80.02 26.442-116.342l-18.984-6.293c-11.688 35.259-21.293 84.165-26.215 113.452Z"/><path fill="#FF5262" d="M567.934 89.878c-2.581-9.806-4.116-27.603-3.117-63.585.395.126.797.261 1.205.407 6.192 2.214 13.894 6.828 19.696 16.854 2.845 4.916 5.322 12.286 7.336 21.224 1.98 8.788 3.372 18.436 4.341 27.494.953 8.91 1.482 17.104 1.773 23.127a44.167 44.167 0 0 1-5.756-1.125c-5.913-1.566-10.977-4.214-14.048-7.487-1.135-1.209-2.332-2.388-3.32-3.361-.337-.331-.65-.64-.927-.916-1.201-1.2-2.107-2.164-2.905-3.187-1.436-1.84-2.955-4.418-4.278-9.445Z"/></svg>