<svg xmlns="http://www.w3.org/2000/svg" width="494" height="761" fill="none"><path fill="#ED9AC9" d="M176.616 626.549c.02-.122.032-.257.058-.4l-.008-.014c-.012.135-.016.284-.05.414Zm236.285-319.313a20.184 20.184 0 0 1-1.007-3.801c-.216-2.143-.174-4.254.008-6.375a50.567 50.567 0 0 1 2.194-8.446 33.972 33.972 0 0 1 1.477-3.064 32.397 32.397 0 0 1 2.137-3.343c1.098-1.34 2.265-2.594 3.468-3.849 1.164-1.197 2.478-2.262 3.771-3.333a55.75 55.75 0 0 1 5.929-3.868c2.571-1.419 5.19-2.757 7.705-4.271a3.397 3.397 0 0 0 1.565-2.292c.34.331.665.634.979.981.969 1.37 1.842 2.761 2.553 4.284.74 1.944 1.211 3.992 1.568 6.034.14 1.547.151 3.06.007 4.59a27.975 27.975 0 0 1-1.323 5.134c-1.042 2.37-2.404 4.506-3.88 6.636a45.457 45.457 0 0 1-3.723 4.165c-1.219 1.228-2.582 2.304-3.924 3.385a105.048 105.048 0 0 1-6.116 4.234c-2.056 1.3-4.106 2.577-6.1 3.95-1.534 1.066-3.003 2.241-4.449 3.457-.292-.341-.59-.661-.876-1.023-.754-1.003-1.419-2.041-1.963-3.185Zm22.174-46.508c.154.075.286.144.418.213-.095.056-.206.084-.315.148-.096.056-.185.091-.267.139l.164-.5Zm-68.042-55.642c-.041 4.106.229 8.212.549 12.307.082 1.105.395 2.075 1.205 2.861.075.066.142.118.21.17-.452.851-.89 1.695-1.35 2.532-1.214 2.233-2.466 4.433-3.689 6.652-2.362 4.298-4.746 8.591-6.895 13.002-2.081 4.28-4.226 8.542-6.35 12.81-1.086 2.139-2.189 4.251-3.261 6.383-1.064 2.053-2.297 4.004-3.596 5.938-2.599 3.303-5.478 6.349-8.233 9.542-3.01 3.507-5.775 7.182-8.508 10.911-.793-.102-1.59-.182-2.396-.276a102.675 102.675 0 0 1-5.512-.844c-2.226-.394-4.403-.982-6.573-1.592-2.12-.585-4.2-1.321-6.292-2.014a118.392 118.392 0 0 1-5.315-1.911c-3.623-1.587-7.056-3.505-10.525-5.421a26.125 26.125 0 0 1-.94-.509c.961-2.322 1.797-4.699 2.612-7.081 1.528-4.504 2.91-9.068 4.236-13.636 1.395-4.792 2.846-9.58 3.982-14.439 1.215-5.162 2.356-10.354 3.549-15.521 1.066-4.635 2.513-9.182 3.925-13.728 1.487-4.791 2.979-9.603 4.372-14.43 1.357-4.732 2.778-9.448 4.191-14.177.749-2.527 1.468-5.073 2.066-7.639.62-2.652.873-5.4 1.101-8.096.203-2.335.249-4.686.311-7.011a561.3 561.3 0 0 1 .295-7.66c.218-4.832.415-9.67.34-14.532-.138-9.894-1.105-19.796-1.788-29.682-.561-8.402-.692-16.818-.914-25.235a492.36 492.36 0 0 1-.17-12.97c.004-1.925-.013-3.855.091-5.765.108-2.278.288-4.525.504-6.775.644-4.918 1.307-9.865 2.237-14.732 1.077-5.52 2.37-11.076 4.355-16.36 1.045-2.426 2.411-4.62 3.92-6.788 1.893-2.448 3.901-4.763 6.269-6.777a21.811 21.811 0 0 1 3.365-2.032c.961-.326 1.935-.57 2.941-.758 2.075-.176 4.181-.113 6.26.093.903.165 1.773.368 2.641.663a30.711 30.711 0 0 1 4.812 2.737c.43.388.832.793 1.207 1.213.868 1.32 1.591 2.707 2.268 4.14a27.649 27.649 0 0 1 1.073 3.104c.338 1.229.543 2.481.734 3.742.271 2.11.47 4.227.537 6.366.087 2.328.025 4.653-.016 6.983-.127 5.017-.239 10.061.086 15.069.321 5.065.818 10.117 1.153 15.174.319 5.03.589 10.069.832 15.124.25 4.943.004 9.883.055 14.831.041 5.303.159 10.615.221 15.923.05 4.821.128 9.627.156 14.442.043 5.027-.049 10.042.064 15.064.231 10.206 1.238 20.396 2.278 30.547.489 4.82.943 9.642 1.155 14.459.225 5.213.202 10.407.165 15.609Zm-97.712 62.482c-.454-.118-.923-.263-1.382-.359-4.117-.931-8.361-1.238-12.575-1.398-4.27-.164-8.562.07-12.767.765-2.085.347-4.159.742-6.145 1.506a149.054 149.054 0 0 0-6.559 2.701c-3.685 1.579-7.224 3.439-10.869 5.086-.405.184-.797.359-1.202.542.464-2.451.893-4.899 1.494-7.303.631-2.604 1.263-5.172 1.729-7.807.492-2.87.711-5.799 1.011-8.684.539-5.534 1.015-11.048 1.226-16.609.208-5.503.02-10.994.228-16.498.202-5.39.373-10.799.312-16.2-.053-5.606-.078-11.193-.004-16.8.075-5.792.094-11.587.169-17.379.071-5.643.269-11.287.375-16.932.096-5.383.065-10.765.061-16.162-.01-5.687.135-11.391.174-17.089.037-5.513-.234-10.991-.69-16.471a576.665 576.665 0 0 1-1.15-16.695c-.342-6.315-.368-12.652-.645-18.95-.142-3.139-.332-6.267-.311-9.41.019-2.957.184-5.855.487-8.797.179-1.222.402-2.432.651-3.659.264-1.327.709-2.595 1.132-3.868 1.143-2.667 2.417-5.264 4.045-7.667.988-1.184 2.086-2.214 3.278-3.207.735-.524 1.479-1.034 2.276-1.484.449-.264.923-.487 1.398-.675 1.943-.775 3.884-1.459 5.9-1.984 2.057-.55 4.104-1.148 6.189-1.587.851-.078 1.696-.136 2.554-.109l.713.185c.366.188.741.389 1.088.606.091.093.174.172.265.265a23.378 23.378 0 0 1 1.686 3.055 36.255 36.255 0 0 1 1.15 3.516c.387 1.53.643 3.118.931 4.67.601 3.234 1.272 6.464 1.781 9.697.606 4.99 1.177 9.98 1.326 15 .182 5.512.334 11.006.819 16.505a394.295 394.295 0 0 0 2.128 18.39c.777 5.621 1.496 11.239 2.343 16.855 1.133 7.443 3.12 14.75 5.026 22.014.949 3.671 1.8 7.362 2.512 11.099.687 3.66 1.226 7.352 1.739 11.059.297 2.406.616 4.818.794 7.24.216 2.985.375 5.966.458 8.974.151 5.366.147 10.75.474 16.104.32 5.468.946 10.958.912 16.414-.045 5.5-.305 10.978-.456 16.485-.103 4.124-.065 8.239-.076 12.364-.011 3.814-.295 7.568-.733 11.34-.696 4.143-1.522 8.252-2.642 12.297a520.084 520.084 0 0 1-2.628 9.049Zm-85.398 323.405c1.329-4.624 2.738-9.205 4.291-13.759 1.379-3.978 2.918-7.902 4.421-11.824.639-1.529 1.265-3.049 1.972-4.526.494-1.06.988-2.119 1.534-3.153 1.177-2.266 2.553-4.41 4.017-6.497a268.8 268.8 0 0 0 2.488-3.183c.912-1.158 1.999-2.236 2.986-3.329 1.026-1.151 2.216-2.18 3.303-3.258 1.169-1.126 2.408-2.165 3.601-3.25 4.446-4.022 9.078-7.824 13.733-11.584 3.929-3.004 7.923-5.864 12.119-8.475 4.539-2.868 9.157-5.6 13.872-8.169 4.593-2.497 9.507-4.415 14.195-6.748a68.989 68.989 0 0 0 13.355-8.708c2.057-1.702 4.084-3.424 5.927-5.367 1.807-1.94 3.592-3.886 5.241-5.972 3.451-4.315 6.956-8.663 10.151-13.194 2.976-4.22 5.747-8.539 8.074-13.146 2.399-4.704 4.63-9.475 6.619-14.377.732-1.84 1.463-3.679 2.187-5.532.094-.183.166-.372.238-.561-.031.073-.055.124-.078.211 1.458-3.657 3.443-6.947 5.711-10.128a53.127 53.127 0 0 1 2.423-2.76c.824-.905 1.789-1.692 2.755-2.479 3.97-2.901 8.13-5.51 12.216-8.276 4.222-2.847 8.501-5.691 12.55-8.802 2.426-1.883 4.788-3.783 7.046-5.86a41.972 41.972 0 0 0 5.421-6.041c3.092-4.178 5.368-8.902 7.526-13.611 1.97-4.342 3.614-8.804 5.673-13.089 2.007-4.218 4.453-8.218 7.063-12.094 1.211-1.554 2.446-3.066 3.799-4.502a407.936 407.936 0 0 1 5.463-5.626c3.454-3.531 7.021-6.963 10.582-10.373 3.461-3.333 6.98-6.627 10.425-9.987 3.125-3.063 6.201-6.115 9.602-8.864 1.962-1.427 3.988-2.746 5.95-4.173a135.938 135.938 0 0 0 6.961-5.445c1.94-1.652 3.694-3.433 5.361-5.364.984-1.128 1.833-2.395 2.699-3.6.743-1.04 1.457-2.1 2.076-3.196a40.123 40.123 0 0 0 2.86-6.256c1.122-3.168 1.555-6.607 1.477-9.948-.046-2.041-.468-4.099-.823-6.106-.514-2.993-1.731-6.03-3.394-8.549-.63-.947-1.266-1.874-1.996-2.744-.996-1.227-2.113-2.255-3.332-3.24-.726-.581-1.511-1.108-2.256-1.659-1.17-.868-2.496-1.443-3.847-1.967a575.913 575.913 0 0 0 2.015-6.072c1.469-4.542 2.867-9.079 3.996-13.733 1.145-4.718 2.345-9.468 3.174-14.257.437-2.527.897-5.048 1.512-7.551.583-2.374 1.351-4.711 2.12-7.048a74.404 74.404 0 0 1 1.327-3.599c1.967-4.505 4.076-8.984 6.093-13.464 2.046-4.589 4.342-9.031 6.783-13.413 2.365-4.263 4.546-8.62 6.669-13.015 1.092-2.253 2.309-4.45 3.526-6.648 1.178-2.138 2.195-4.365 3.16-6.616.67-1.602 1.343-3.26 1.832-4.92.484-1.639.84-3.276 1.151-4.959.615-3.346.856-6.8 1.185-10.197.203-1.492.447-3.008.872-4.466a70.117 70.117 0 0 1 1.746-5.254c2.026-4.559 4.476-8.926 6.276-13.59.601-1.562 1.133-3.119 1.424-4.773.274-1.496.388-3.046.384-4.581.007-2.823-.727-5.724-1.753-8.342-1.008-2.556-2.192-5.009-3.507-7.403-.549-.995-1.171-1.93-1.823-2.883-.83-1.196-1.751-2.357-2.83-3.352-1.235-1.105-2.682-2.104-4.117-2.926-1.228-.688-2.647-1.172-4.008-1.525-.864-.225-1.954-.335-2.815-.397-.554-.04-1.109-.08-1.661-.086-2.204.05-4.345.394-6.484.991a43.665 43.665 0 0 0-3.133 1.054c-1.367.51-2.801 1.06-4.114 1.722a76.448 76.448 0 0 0-4.731 2.542c-.64.376-1.271.765-1.881 1.16a57.576 57.576 0 0 0-6.608 5.017 66.963 66.963 0 0 0-9.662 10.382c-1.661 2.22-3.107 4.589-4.493 6.996-1.172 2.025-2.315 4.069-3.346 6.176-2.29 4.64-4.259 9.421-5.974 14.291-2.69 7.603-5.033 15.331-7.926 22.87-1.717 4.212-3.426 8.438-5.23 12.628-1.878 4.343-4.266 8.474-6.532 12.624-1.22 2.254-2.432 4.522-3.674 6.771-1.126 2.071-2.363 4.079-3.586 6.079a230.946 230.946 0 0 0-3.71 6.335c-1.159 2.109-2.28 4.25-3.439 6.359a278.93 278.93 0 0 1-7.553 12.913 756.87 756.87 0 0 0-3.712 5.988c-.006-.289-.025-.571-.03-.861-.025-2.566-.015-5.135.022-7.719.074-5.297.014-10.57-.281-15.87-.258-4.863-.714-9.721-1.105-14.561-.416-5.009-.727-10.025-1.017-15.035a256.494 256.494 0 0 1-.367-15.05c.018-5.172.058-10.339.055-15.517-.024-4.745-.013-9.493-.058-14.244-.058-5.146-.138-10.297.023-15.444.153-5.068.094-10.122-.163-15.17-.275-5.018-.389-10.04-.748-15.046-.36-5.005-.812-10.011-.825-15.019-.021-5.113.249-10.232.277-15.355.019-2.336-.168-4.679-.466-6.993-.303-2.604-.581-5.351-1.359-7.86-.812-2.597-1.894-5.092-3.078-7.544a22.257 22.257 0 0 0-3.946-5.626c-.891-.923-2.045-1.672-3.146-2.362a93.342 93.342 0 0 0-2.376-1.459c-1.239-.737-2.59-1.26-3.949-1.798-1.373-.53-2.885-.703-4.332-.86a38.32 38.32 0 0 0-6.727-.202c-3.38.229-6.587 1.252-9.499 2.963-.204.12-.394.232-.591.366-1.845 1.158-3.47 2.661-5.075 4.135-.773.71-1.474 1.543-2.147 2.36a108.103 108.103 0 0 0-3.192 4.163 47.682 47.682 0 0 0-2.435 3.646c-1.459 2.377-2.488 5.05-3.341 7.71-3.161 9.857-4.485 20.19-5.617 30.446-.535 4.946-.576 9.893-.516 14.855.059 5.054.259 10.099.445 15.151.187 4.96.254 9.936.52 14.906.244 4.871.608 9.728.994 14.59.394 4.784.851 9.549 1.118 14.334.277 5.146.413 10.301.387 15.459-.036 3.957-.235 7.918-.342 11.88-.082 3.91-.143 7.826-.458 11.746a72.883 72.883 0 0 1-1.257 6.522c-.557 2.323-1.371 4.613-2.115 6.899-1.472 4.599-2.849 9.234-4.327 13.854a667.832 667.832 0 0 1-4.709 14.262c-1.683 4.925-3.31 9.853-4.631 14.894-.929 3.529-1.771 7.081-2.691 10.624a209.286 209.286 0 0 1-3.278 11.37c-2.183 6.847-4.67 13.581-7.28 20.294a109.798 109.798 0 0 1-1.526 3.478c-.262-.103-.51-.213-.763-.302-.696-.25-1.412-.471-2.113-.699 1.192-3.922 2.362-7.85 3.411-11.797 1.504-5.698 2.799-11.438 3.357-17.312.518-5.411.398-10.85.724-16.277.295-5.481.716-10.964.826-16.447.113-5.447-.365-10.841-.577-16.28-.207-5.773-.164-11.527-.095-17.297a142.833 142.833 0 0 0-.685-16.401c-.548-5.7-1.161-11.417-2.129-17.053-.505-2.853-1.022-5.697-1.624-8.528-.592-2.783-1.286-5.523-1.919-8.281-1.277-5.601-2.405-11.198-3.227-16.866-1.211-9.85-2.428-19.678-3.097-29.572-.364-5.168-.465-10.325-.547-15.512-.085-5.441-.807-10.783-1.518-16.168l.091.716c-.04-.38-.101-.765-.141-1.144-.37-2.748-.905-5.435-1.47-8.142-.524-2.511-.944-5.065-1.517-7.565-.294-1.218-.605-2.464-1.065-3.621-.659-1.681-1.284-3.4-2.155-4.976-1.006-1.806-2.098-3.508-3.524-5.031-.656-.713-1.518-1.213-2.292-1.783-.551-.409-1.187-.712-1.794-.997-2.024-.952-4.134-1.396-6.364-1.422-.991-.004-2.159.189-3.124.353-.448.08-.838.163-1.27.27-.613.14-1.183.292-1.772.474-1.316.407-2.612.912-3.918 1.369-2.847 1.013-5.647 2.073-8.414 3.314-1.126.515-2.286 1.032-3.361 1.664-.368.216-.727.445-1.092.696-1.458 1.04-2.87 2.126-4.218 3.32-3.019 2.653-5.088 6.266-6.651 9.93-1.209 2.834-2.207 5.654-2.909 8.665-.276 1.15-.422 2.335-.568 3.52a66.533 66.533 0 0 0-.529 4.74c-.371 5.599-.071 11.188.265 16.775.32 5.468.421 10.937.698 16.394a879.52 879.52 0 0 0 1.04 16.631c.204 2.809.471 5.599.605 8.413.159 2.981.199 5.978.204 8.977.014 5.446-.163 10.877-.184 16.326-.025 5.689-.008 11.389-.068 17.081-.058 5.635-.223 11.242-.346 16.86-.095 5.291-.054 10.594-.128 15.89-.064 5.529-.094 11.056-.023 16.598.057 5.549.014 11.084-.197 16.644-.209 5.596-.163 11.189-.302 16.779-.16 7.673-.845 15.324-1.752 22.94a72.42 72.42 0 0 1-.998 5.529c-.401 1.718-.917 3.394-1.304 5.104-.771 3.455-1.272 7.026-2.44 10.366-.461 1.022-.923 2.043-1.095 3.152-.081.267-.084.543-.108.813-.894.379-1.786.793-2.68 1.172a149.448 149.448 0 0 1-5.639 2.087c-.875-1.334-1.759-2.682-2.588-4.062-.791-1.347-1.471-2.723-2.119-4.137-.542-1.639-1.036-3.29-1.391-4.985-.389-1.876-.813-3.75-1.299-5.606a108.746 108.746 0 0 1-2.324-11.246c-.324-2.702-.543-5.411-.55-8.134-.014-3.14.063-6.279-.105-9.401-.173-3.596-.846-7.173-1.488-10.695a233.448 233.448 0 0 1-1.358-8.262c-.825-8.32-.796-16.684-1.325-25.031a40.804 40.804 0 0 0-1.053-6.996c-.567-2.303-1.607-4.51-2.524-6.662-.819-1.862-1.742-3.681-2.58-5.513a285.296 285.296 0 0 1-2.212-4.887 57.534 57.534 0 0 1-2.256-6.674c-.568-2.119-.962-4.285-1.285-6.456-.515-4.988-.687-10.049-.332-15.053.372-5.472 1.251-10.894 1.672-16.377.214-2.596.398-5.212.392-7.808-.008-2.942-.333-5.863-.84-8.75-.481-2.628-1.183-5.162-1.999-7.703-.955-3.027-1.92-6.102-3.198-8.994-.668-1.511-1.646-2.895-2.592-4.225-1.95-2.79-4.611-4.795-7.784-5.988-5.06-1.914-10.216-.22-14.971 1.75a140.1 140.1 0 0 0-3.985 1.755c-.72.332-1.403.697-2.083 1.097-.545.32-1.095.66-1.645 1.002-2.88 1.766-5.273 4.142-7.373 6.767-1.115 1.406-2.217 2.895-3.152 4.451-2.796 4.682-5.054 9.687-7.184 14.691-2.272 5.326-3.439 10.972-4.22 16.684-.758 5.534-1.37 11.129-1.324 16.721.045 5.373.231 10.737.742 16.093.543 5.63 1.03 11.256 1.782 16.836.698 5.301 1.957 10.528 2.997 15.756 1.05 5.277 2.342 10.467 3.721 15.679 1.364 5.221 2.463 10.487 3.438 15.791.954 5.113 2.011 10.184 3.104 15.253 1.126 5.251 2.128 10.538 3.148 15.796.92 4.713 1.846 9.404 2.555 14.131.18 2.237.286 4.444.298 6.707.005 2.065-.209 4.131-.444 6.192a223.788 223.788 0 0 1-1.014 6.563c-.177 1.037-.323 2.129-.622 3.147a53.132 53.132 0 0 1-1.057 3.092c-.575 1.327-1.151 2.653-1.842 3.938a40.796 40.796 0 0 1-2.5 4.032c-3.077 3.986-6.541 7.687-9.857 11.484-1.66 1.909-3.38 3.78-4.944 5.761-1.622 2.069-3.267 4.097-5.039 6.036-1.688 1.833-3.573 3.453-5.3 5.218-1.787 1.819-3.507 3.69-5.332 5.476-1.83 1.808-3.636 3.656-5.225 5.688a163.297 163.297 0 0 0-5.735 7.781c-3.037 4.365-6.052 8.736-9.191 13.051-3.159 4.346-6.404 8.668-9.272 13.227-2.997 4.745-5.736 9.649-8.534 14.514-2.577 4.462-5.36 8.824-7.827 13.349-3.794 6.97-7.58 13.954-11.265 20.988-1.774 3.367-3.546 6.769-5.18 10.219-1.889 3.983-3.384 8.138-4.93 12.268l-.09.218c-.957 2.392-2.188 4.69-3.298 7.008-1.167 2.406-2.248 4.835-3.313 7.291-2.186 5.128-4.255 10.298-5.81 15.66-1.446 4.986-2.645 10.047-3.659 15.145-.47 2.473-.86 4.954-1.381 7.402-.529 2.434-1.128 4.872-1.57 7.329-.542 2.972-.976 5.973-1.24 8.983-.242 2.796-.273 5.579-.231 8.391.084 5.222.795 10.388 1.245 15.578.493 5.513.867 11.041 1.184 16.565.14 2.608.133 5.212.111 7.824-.014 2.717-.299 5.411-.548 8.102-.47 5.181-.884 10.366-1.49 15.536-1.382 10.514-2.957 21.013-4.289 31.551-.674 5.302-1.276 10.634-1.58 15.975-.326 5.426-.227 10.86-.242 16.287-.057 11.089-.892 22.16-.857 33.25.01 5.375.294 10.718.84 16.072.563 5.508 1.113 11.024 1.733 16.535.668 5.996 1.476 11.983 2.24 17.958.393 2.973.777 5.932 1.134 8.907.213 1.797.432 3.572.703 5.372.31 1.959.829 3.997 2.062 5.597a4.031 4.031 0 0 0 4.511 1.852c2.147-.584 3.356-2.795 2.837-4.925-.031-.146-.07-.306-.094-.439-.277-2.436-.45-4.879-.65-7.306a216.071 216.071 0 0 0-.773-7.984c-.539-5.248-1.24-10.492-1.863-15.727-.632-5.376-1.145-10.767-1.721-16.14-.581-5.662-1.103-11.286-1.275-16.969-.345-11.055.458-22.088.623-33.149.098-5.348-.01-10.703.116-16.066.114-5.321.724-10.639 1.322-15.915.127-1.154.254-2.309.403-3.458 1.443-10.567 3.086-21.106 4.472-31.677.745-5.617 1.211-11.273 1.791-16.922.54-5.406.622-10.781.41-16.221-.262-6.801-.827-13.59-1.343-20.388-.243-3.372-.48-6.766-.475-10.155.01-3.41.236-6.765.638-10.131.498-3.203 1.163-6.339 1.877-9.486.837-3.622 1.526-7.248 2.285-10.879 1.448-7.038 3.402-14.025 5.94-20.734a334.844 334.844 0 0 1 6.277-14.212c1.11-2.41 2.274-4.759 3.29-7.205 1.088-2.635 2.066-5.332 3.095-8.005 2.069-4.767 4.523-9.376 6.907-13.98 2.442-4.693 4.98-9.314 7.4-14.013 2.357-4.588 4.693-9.181 7.278-13.629 2.839-4.89 5.648-9.798 8.465-14.693 3.755-6.508 8.08-12.637 12.487-18.722 2.091-2.858 4.197-5.725 6.251-8.616a715.092 715.092 0 0 1 5.957-8.369c1.608-2.061 3.245-4.103 4.958-6.079 1.719-1.999 3.491-3.937 5.209-5.935 3.338-3.883 6.776-7.66 9.95-11.667 1.564-1.98 3.061-4.013 4.692-5.942a316.078 316.078 0 0 1 5.176-5.896c1.862-2.065 3.754-4.11 5.571-6.221 1.836-2.14 3.46-4.486 4.88-6.93 1.477-2.534 2.777-5.275 3.729-8.049.878-2.493 1.403-5.089 1.876-7.71 1.026-5.545 1.661-11.318 1.145-16.964-.519-5.68-1.69-11.289-2.832-16.878-1.09-5.345-2.189-10.703-3.363-16.035-.592-2.691-1.268-5.369-1.888-8.043-.583-2.55-1.111-5.132-1.631-7.7-1.091-5.345-2.278-10.669-3.765-15.909-1.518-5.295-2.972-10.573-4.183-15.938-1.144-5.094-2.562-10.155-3.386-15.327-.154-.916-.294-1.84-.448-2.756-.495-3.865-.933-7.726-1.441-11.582a159.236 159.236 0 0 1-1.149-15.104c-.094-2.745-.088-5.476.011-8.206.068-2.658.376-5.31.65-7.96.349-2.677.772-5.323 1.349-7.986.543-2.534 1.369-4.96 2.295-7.371 2.276-5.163 4.764-10.213 7.802-14.981 1.579-2.08 3.224-4.11 5.216-5.829a30.192 30.192 0 0 1 5.737-3.353c2.848-1.197 5.763-2.342 8.816-2.91a15.944 15.944 0 0 1 2.163-.026c.416.085.813.2 1.218.328.687.328 1.342.694 1.991 1.082.547.465 1.062.968 1.523 1.502.882 1.221 1.71 2.474 2.396 3.828.887 2.352 1.639 4.784 2.347 7.205a53.295 53.295 0 0 1 1.611 7.071c.269 2.515.359 5.006.298 7.55-.055 2.741-.357 5.499-.604 8.225-.463 5.288-1.337 10.56-1.771 15.867-.21 2.54-.231 5.152-.171 7.716.059 2.655.162 5.322.497 7.981a73.074 73.074 0 0 0 1.583 8.863c.604 2.555 1.556 5.016 2.527 7.447 1.551 3.793 3.371 7.483 4.999 11.249.764 1.986 1.384 3.946 1.766 6.028.241 3.153.226 6.274.213 9.43-.02 3.58.018 7.165.06 10.727.043 3.562.225 7.08.647 10.603.419 3.579.935 7.138 1.452 10.697.252 2.36.417 4.697.514 7.074.096 2.47.003 4.959.05 7.439.125 5.29.955 10.568 1.993 15.761.489 2.421 1.209 4.799 1.893 7.179.682 2.345 1.128 4.755 1.914 7.058.917 2.682 2.15 5.216 3.548 7.69a70.038 70.038 0 0 0 2.136 3.449c-2.13.611-4.277 1.195-6.452 1.667-2.127.463-4.253.925-6.408 1.276-2.218.37-4.424.696-6.639 1.009-3.84.536-7.652 1.183-11.455 1.971-3.558.736-7.103 1.464-10.661 2.2-.23.044-.45.137-.641.249-.939.552-1.421 1.787-1.152 2.837.377 1.389 1.759 2.06 3.099 1.785 5.389-1.079 10.779-2.124 16.218-2.994 1.761-.211 3.55-.439 5.321-.601 2.238-.18 4.459-.387 6.679-.629 4.137-.436 8.268-1.07 12.357-1.806 1.719-.315 3.417-.635 5.12-.977.124.056.256.125.385.158a5.319 5.319 0 0 0 4.023-.569c.326-.192.615-.417.902-.677.662-.151 1.318-.28 1.98-.431 3.83-.896 7.588-2.134 11.276-3.459a536.315 536.315 0 0 0 11.62-4.338c4.211-1.651 8.317-3.605 12.461-5.4 1.845-.754 3.69-1.509 5.58-2.125 2.104-.687 4.295-1.041 6.487-1.359a72.292 72.292 0 0 1 8.364-.503c2.766.004 5.535.043 8.31.279 1.244.185 2.47.434 3.705.697.451 1.236 1.503 2.247 2.799 2.584 1.34.348 2.651-.038 3.619-.882.608.192 1.223.398 1.83.591-.617 2.376.309 4.98 2.573 6.249a5.535 5.535 0 0 0 4.124.506c1.389-.377 2.385-1.237 3.178-2.38.886.449 1.765.885 2.624 1.35 3.862 2.087 7.662 4.193 11.732 5.792 3.706 1.446 7.45 2.834 11.27 3.976 1.892.572 3.801 1.08 5.752 1.471 1.994.403 3.997.727 6.013 1.043 1.674.262 3.368.529 5.056.69 1.211.131 2.577-.599 3.378-1.417.251-.257.451-.54.635-.849.411-.205.803-.472 1.11-.854 3.337-4.01 6.367-8.262 9.65-12.333 3.191-3.979 6.448-7.907 9.259-12.157 1.367-2.067 2.431-4.339 3.547-6.551 1.109-2.225 2.234-4.424 3.343-6.65 1.064-2.144 2.18-4.264 3.25-6.431 1.076-2.188 2.085-4.428 3.204-6.605 2.381-4.547 4.894-9.025 7.407-13.504 2.325-4.111 4.54-8.287 6.924-12.36 2.525-4.302 5.292-8.473 7.965-12.679 2.741-4.338 5.343-8.759 7.856-13.237 2.411-4.309 4.948-8.527 7.521-12.748 2.476-4.072 4.681-8.296 6.974-12.463 1.146-2.1 2.313-4.196 3.407-6.321 1.15-2.25 2.183-4.541 3.166-6.857 1.934-4.56 3.963-9.083 5.773-13.698 2.988-7.594 5.447-15.373 8.376-23.006 3.046-7.372 6.814-14.419 11.312-21.033 2.95-3.766 6.359-7.123 10.005-10.235a65.966 65.966 0 0 1 4.655-3.138c1.772-1.096 3.643-1.994 5.521-2.878 2.247-.881 4.525-1.615 6.892-2.073 1.1-.06 2.204-.05 3.313.03a17.64 17.64 0 0 1 1.809.493 21.32 21.32 0 0 1 2.599 1.494 22.43 22.43 0 0 1 2.188 2.229 47.386 47.386 0 0 1 4.275 7.152c.463 1.193.877 2.395 1.131 3.637.056.938.048 1.858-.015 2.81a18.79 18.79 0 0 1-.711 3.09 42.63 42.63 0 0 1-.692 1.907c-1.02 2.376-2.152 4.688-3.259 7.041-1.275 2.689-2.397 5.453-3.46 8.256-2.033 5.295-2.464 10.948-3.133 16.539-.274 1.809-.593 3.57-1.04 5.334-.368 1.461-.931 2.871-1.501 4.268a97.447 97.447 0 0 1-3.249 6.559c-1.196 2.203-2.428 4.373-3.564 6.615-2.176 4.335-4.258 8.706-6.589 12.932-2.401 4.357-4.637 8.746-6.636 13.289-2.057 4.631-4.216 9.213-6.281 13.831-1.124 2.509-2.001 5.13-2.865 7.742-.713 2.213-1.381 4.472-1.87 6.755-.519 2.483-.956 5.01-1.466 7.506-.457 2.245-1.057 4.464-1.535 6.704-1.057 4.868-2.15 9.738-3.437 14.558-.698 2.551-1.538 5.077-2.322 7.606-.453 1.474-.953 2.958-1.427 4.426-1.14-.007-2.29.028-3.409.118-2.85.228-5.76.51-8.54 1.137-2.753.611-5.415 1.315-8.077 2.238-5.088 1.745-9.983 4.163-14.746 6.651-2.72 1.415-5.416 2.871-8.056 4.422a105.916 105.916 0 0 0-5.023 3.134c-4.306 2.86-8.572 5.787-12.675 8.93-4.528 3.448-8.986 6.983-13.306 10.692-3.964 3.41-7.8 6.945-11.794 10.335-4.027 3.428-8.114 6.817-12.004 10.384a146.522 146.522 0 0 0-10.8 11.031c-4.699 5.306-9.165 10.822-14.16 15.843-2.502 2.533-5.225 4.846-7.873 7.226-2.462 2.197-4.953 4.374-7.509 6.443-4.05 2.984-8.281 5.598-12.728 7.937-4.222 2.224-8.673 4.089-13.059 5.97-1.763.707-3.538 1.457-5.372 1.949-2.231.596-4.496 1.103-6.742 1.673-2.754.703-4.706 3.332-4.705 6.169.005 3.31 2.912 6.544 6.378 6.338 2.996-.168 6.051-.7 8.879-1.776a144.11 144.11 0 0 0 8.737-3.669c4.727-2.173 9.39-4.456 13.905-7.053 4.849-2.776 9.405-6.021 13.731-9.532 3.908-3.194 7.568-6.717 11.179-10.23 1.833-1.772 3.687-3.539 5.383-5.451a286.123 286.123 0 0 0 5.221-6.069 383.9 383.9 0 0 1 9.916-11.446c3.497-3.83 7.349-7.338 11.219-10.783 3.87-3.446 7.824-6.812 11.67-10.298 3.275-2.932 6.438-5.961 9.751-8.86 3.452-3.035 6.928-6.029 10.504-8.917 5.09-3.924 10.253-7.818 15.733-11.203a152.27 152.27 0 0 1 17.899-9.51c1.962-.805 3.918-1.588 5.965-2.187 2.559-.753 5.131-1.33 7.758-1.812a78.134 78.134 0 0 1 3.62-.352 4.68 4.68 0 0 0 .612 2.569 4.438 4.438 0 0 0 2.119 1.83c-1.575.779-3.141 1.571-4.681 2.44l-.368.216c-3.279 1.927-6.285 4.351-9.021 6.984-1.514 1.475-2.836 3.057-4.064 4.768-1.132 1.562-2.054 3.202-2.877 4.948-1.75 3.628-2.732 7.719-3.184 11.718-.418 3.651-.149 7.41.722 10.98.389 1.565 1.022 3.079 1.734 4.509.877 1.773 2.191 3.325 3.455 4.853.046.046.078.1.123.147-.857.815-1.723 1.616-2.588 2.418-3.735 3.457-7.543 6.884-11.179 10.448a698.358 698.358 0 0 0-11.658 11.627 102.385 102.385 0 0 0-4.336 4.708c-1.563 1.797-2.929 3.771-4.297 5.71-2.601 3.706-4.776 7.73-6.86 11.755-1.003 1.907-1.866 3.897-2.788 5.848a293.782 293.782 0 0 1-2.856 5.888c-1.914 3.815-3.984 7.521-6.31 11.102a36.55 36.55 0 0 1-3.23 3.601c-1.213 1.206-2.56 2.309-3.902 3.391-3.903 2.86-8.054 5.391-12.104 8.063-4.488 2.985-9.055 5.87-13.463 8.991-2.371 1.667-4.653 3.484-6.71 5.498-2.076 2.043-3.744 4.47-5.401 6.853-3.12 4.505-4.873 9.745-6.742 14.852-.664 1.8-1.349 3.593-2.048 5.395-2.623 6.191-5.431 12.38-8.916 18.162-3.53 5.863-7.614 11.374-11.663 16.883-1.992 2.562-3.978 5.101-6.225 7.446a94.187 94.187 0 0 1-4.023 3.902c-.906.825-1.861 1.569-2.807 2.326l-3.125 2.221c-.75.532-1.566 1.012-2.369 1.483-.422.248-.838.475-1.252.736-2.161 1.307-4.51 2.357-6.791 3.459-4.571 2.192-9.135 4.361-13.501 6.963-4.739 2.839-9.395 5.758-13.982 8.856-4.413 2.959-8.526 6.364-12.607 9.732-4.088 3.354-8.097 6.844-12.025 10.378-1.826 1.659-3.695 3.307-5.347 5.138-.876.971-1.832 1.899-2.632 2.937l-2.875 3.611c-4.555 5.77-7.44 12.481-10.174 19.231-1.968 4.908-3.925 9.865-5.571 14.914-1.641 5.028-3.106 10.136-4.588 15.216-1.438 5-2.683 10.015-3.467 15.161-.788 5.296-1.338 10.653-1.805 15.997-.442 5.074-.643 10.153-.836 15.245-.301 7.901-.517 15.789-.336 23.7.112 4.053.166 8.103.172 12.163.004 3.933.066 7.869.549 11.776.103.892.294 1.622.967 2.269.585.59 1.391.903 2.219.911 1.584-.015 3.381-1.474 3.173-3.2-.599-5.194-.399-10.4-.349-15.61.049-5.557.063-11.111.168-16.664.101-5.313.588-10.651.979-15.969.351-4.948.746-9.884 1.333-14.805.416-3.155.811-6.315 1.205-9.476.607-4.42 1.373-8.787 2.428-13.159 1.05-4.351 2.416-8.632 3.666-12.954Z"/></svg>