<svg xmlns="http://www.w3.org/2000/svg" width="989" height="519" fill="none"><path fill="#0007B0" d="M10.167 85.822c.647-.903 1.385-1.694 2.171-2.463 2.982-2.653 6.038-5.188 9.494-7.188.916-.427 1.828-.813 2.803-1.086a12.645 12.645 0 0 1 2.371-.313c.14.006.269.035.403.053.07.032.154.069.22.113.525.378.99.8 1.455 1.25.417.4.964.575 1.528.615-.929 4.57-1.846 9.144-2.723 13.723-1.103 5.812-2.242 11.608-3.047 17.484-.811 5.887-1.341 11.814-1.854 17.735-.25 2.772-.453 5.565-.703 8.337-.274 2.889-.623 5.786-.81 8.671-.341 5.317-.381 10.627-.722 15.943-.05.774-.127 1.548-.188 2.317-.824-4.462-1.804-8.894-3.03-13.281-.977-3.521-1.96-7.059-2.868-10.607-.784-3.633-1.492-7.247-2.08-10.906-.573-3.596-1.013-7.204-1.62-10.787-.602-3.566-1.583-7.046-2.074-10.634-.518-3.656-.778-7.381-.909-11.077.062-1.436.166-2.838.496-4.238a23.267 23.267 0 0 1 1.687-3.661ZM49.845 24.35a29.965 29.965 0 0 1 2.39-5.292 27.85 27.85 0 0 1 3.296-4.018c.975-.812 1.997-1.504 3.077-2.17a34.295 34.295 0 0 1 6-2.32 38.061 38.061 0 0 1 6.47-.676c.663.042 1.31.12 1.96.255l.473.213c.396.32.776.646 1.132.991 2.032 2.404 3.816 4.981 5.59 7.582 1.885 2.764 3.742 5.558 5.592 8.335 2.017 3.008 4.01 6.035 6.028 9.043 1.921 2.809 4.039 5.465 5.826 8.384.236.518.467 1.048.658 1.602.032.214.047.433.068.641-.2 2.155-.731 4.318-1.19 6.414a388.296 388.296 0 0 1-1.62 7.313c-1.032 4.48-2.234 8.899-3.366 13.349-1.213 4.854-2.426 9.708-3.498 14.596-.963 4.327-1.886 8.63-3.013 12.911-2.633 7.953-5.755 15.729-8.983 23.457-2.31-.455-4.684-.612-7.032-.7-1.383-.053-2.55.048-3.722.886a5.1 5.1 0 0 0-2.064 3.363 5.143 5.143 0 0 0 .874 3.717c.733 1.026 2.067 1.98 3.364 2.065 2.577.177 5.103.501 7.601 1.14 1.112.371 2.168.803 3.2 1.352.312.225.612.473.907.733.215.282.418.557.61.857.032.057.046.12.072.188.415 2.147.616 4.326.817 6.504.211 2.155.377 4.318.548 6.469.336 4.313.702 8.626 1.338 12.904.65 4.469 1.687 8.869 2.935 13.209 1.226 4.201 2.44 8.397 3.567 12.625.743 3.346 1.45 6.675 1.933 10.06.552 3.899.96 7.833.967 11.771a53.287 53.287 0 0 1-.254 3.225c-.755.13-1.51.231-2.258.407a165.056 165.056 0 0 0-7.778 1.977c-1.067.288-2.134.576-3.182.915-1.225.388-2.44.908-3.679 1.232a4.09 4.09 0 0 0-1.792 1.27 4.355 4.355 0 0 0-.969 3.202 4.345 4.345 0 0 0 1.541 2.865c.322.202.656.408.977.609.71.319 1.451.439 2.23.348 1.575.039 3.133-.582 4.607-1.114 1.127-.389 2.242-.783 3.375-1.155 2.203-.73 4.422-1.368 6.647-1.988 2.731-.578 5.466-.941 8.244-.958 1.274.075 2.522.237 3.77.528 1.537.533 2.97 1.234 4.374 2.063 1.646 1.08 3.19 2.228 4.588 3.609a29.09 29.09 0 0 1 2.254 2.859c.651.988 1.723 1.512 2.834 1.599 2.796 5.418 5.33 10.945 7.966 16.434 1.449 3.008 2.952 5.956 4.224 9.042 1.35 3.291 2.744 6.545 4.333 9.716a388.182 388.182 0 0 0 10.059 18.766c3.161 5.554 6.175 11.183 9.205 16.806 2.184 4.219 4.193 8.446 5.915 12.87 1.622 4.109 3.175 8.245 4.831 12.341 1.7 4.187 3.395 8.387 5.461 12.425 2.355 4.595 4.824 9.128 7.288 13.672.837 1.584 1.618 3.199 2.427 4.783-1.929-1.335-3.833-2.729-5.653-4.243-2.315-1.934-4.511-3.972-6.809-5.912-2.097-1.752-4.317-3.359-6.475-5.039a112.85 112.85 0 0 1-6.905-5.856c-2.244-2.059-4.353-4.228-6.625-6.256-2.08-1.886-4.379-3.6-6.658-5.234-2.522-1.787-5.045-3.573-7.556-5.354a129.485 129.485 0 0 0-10.194-6.566 414.83 414.83 0 0 1-9.183-5.402c-2.31-1.563-4.61-3.149-6.856-4.825-2.485-1.869-4.988-3.732-7.55-5.493-4.783-3.27-9.73-6.272-14.271-9.86-9.49-7.5-18.772-15.276-27.97-23.114-1.924-1.631-3.89-3.266-5.725-5a197.519 197.519 0 0 1-5.881-5.794c-1.843-2.035-3.651-4.083-5.399-6.203-2.04-2.451-4.025-4.99-5.643-7.748a17.628 17.628 0 0 1-.698-1.705c-.462-2.737-.404-5.524-.462-8.306a388.41 388.41 0 0 1-.078-6.882c.102-3.265.262-6.532.613-9.783.445-4.219.917-8.497.635-12.743-.514-7.59-1.865-15.087-2.164-22.679.24-5.533.986-10.994 1.5-16.503.529-5.672.565-11.353.983-17.033.4-5.701 1.056-11.402 1.58-17.092.544-5.864 1-11.754 1.703-17.59 1.407-11.869 3.656-23.617 5.62-35.394.982-5.923 1.93-11.834 2.622-17.803.666-5.724.97-11.497 1.265-17.247.285-5.824.663-11.792 2.19-17.442ZM97.86 314.543c-.078-.049-.16-.086-.255-.129a3.139 3.139 0 0 0-.962-.261c-.618-.207-1.241-.401-1.854-.619a485.008 485.008 0 0 1-10.037-3.626 231.655 231.655 0 0 1-8.847-3.49c-2.728-1.139-5.456-2.279-8.018-3.756-2-1.338-3.847-2.793-5.594-4.472-.553-.603-1.095-1.231-1.564-1.896-.74-1.042-1.41-2.11-2.088-3.196-1.267-1.989-2.46-4.017-3.641-6.067a62.688 62.688 0 0 1-2.818-6.224c-.734-1.878-1.422-3.764-2.156-5.642.843.719 1.678 1.421 2.526 2.129 4.534 3.825 9.134 7.567 13.723 11.333 4.74 3.904 9.409 7.904 14.293 11.645 4.513 3.462 9.41 6.385 13.994 9.75 2.537 1.849 5.058 3.734 7.606 5.589.216.153.436.295.652.449-1.646-.512-3.303-1-4.96-1.517ZM205.512 47.888c10.754-9.648 22.989-17.466 35.55-24.527 2.311-1.221 4.629-2.397 7.088-3.253.213-.032.545.028.758-.005-.011-.005.012.006 0 0-.071-.031.071.032 0 0 .023-.018-.01.024 0 0-.778.944-.91 2.082-.877 3.276.008.487.005.968-.003 1.462-.064 1.662-.18 3.343-.529 4.976-.451 1.162-1.027 2.224-1.667 3.3-1.139 1.777-2.374 3.453-3.848 4.964-2.516 2.152-5.269 4.013-8.068 5.754a202.123 202.123 0 0 1-9.162 5.405c-4.553 2.388-9.206 4.618-14.179 5.98-1.204.212-2.381.365-3.592.404a10.092 10.092 0 0 1-1.051-.16c-.353-.13-.696-.284-1.045-.455-.73-.526-1.382-1.132-2.03-1.778a28.154 28.154 0 0 1-1.173-1.436c1.25-1.328 2.53-2.629 3.828-3.907Zm15.96 80.714c1.204-1.192 2.205-2.505 3.222-3.852.913-1.21 1.886-2.364 2.865-3.501 1.97-2.298 4.073-4.451 6.104-6.665 2.13-2.339 4.14-4.79 6.114-7.256 2.145-2.688 4.002-5.59 5.765-8.535.332.746.677 1.497 1.022 2.249a390.559 390.559 0 0 0 3.573 7.358c3.043 6.196 6.468 12.365 10.501 17.97 3.768 5.215 8.216 9.897 12.483 14.697 2.099 2.349 4.261 4.655 6.395 6.991 2.2 2.408 4.288 4.909 6.411 7.396 4.075 4.785 8.542 9.234 12.359 14.244 2.038 2.677 3.912 5.464 5.826 8.227 1.802 2.6 3.634 5.198 5.453 7.791 3.831 5.456 7.158 11.24 10.587 16.957 3.38 5.637 6.924 11.192 10.445 16.737 2.353 3.713 4.637 7.423 6.786 11.244 2.904 5.907 5.516 11.924 8.401 17.808 1.592 3.258 3.2 6.48 4.814 9.72-1.692 2.124-3.439 4.209-5.336 6.156-.294.308-.607.594-.902.902-8.512.256-17.029.651-25.506 1.462-5.253.497-10.478 1.12-15.747 1.496-5.38.369-10.755.726-16.123 1.257-8.365.846-16.629 2.449-24.912 3.873-1.388.243-2.613.787-3.529 1.91a5.175 5.175 0 0 0-.938 1.71c-3.507-2.157-7.02-4.303-10.532-6.448-1.436-.915-2.878-1.818-4.297-2.739-1.056-.687-2.051-1.191-3.201-1.352a322.155 322.155 0 0 0-.438-3.265c-.183-1.333-.482-2.66-.728-3.978-.19-1.066-.512-2.12-.777-3.176-.193-.74-.34-1.488-.573-2.204a194.428 194.428 0 0 0-6.292-17.06c-3.2-7.588-8.202-14.295-12.947-20.943-4.479-6.288-9.775-11.961-15.034-17.59a338.929 338.929 0 0 1-5.759-6.507c.385-.637.753-1.267 1.103-1.92.598-1.11 1.255-2.193 1.751-3.362.599-1.365 1.182-2.695 1.669-4.095 1.085-3.051 1.977-6.145 2.763-9.287.653-2.562 1.071-5.202 1.525-7.796.913-5.103 1.722-10.195 2.799-15.252.744-3.587 1.564-7.154 2.525-10.686a103.566 103.566 0 0 1 2.175-5.985c.079-.206.181-.402.259-.608.029-.001.075-.009.104-.01 3.041-.538 5.565-1.92 7.772-4.083Zm49.678-90.325c2.258-1.515 4.532-3.037 6.894-4.405 1.12-.563 2.248-1.051 3.463-1.415.374-.073.737-.123 1.124-.163.624.067 1.233.199 1.855.364 1.535.505 2.982 1.112 4.401 1.905 3.853 2.526 7.353 5.617 10.997 8.419 4.309 3.313 8.533 6.658 13.007 9.732 1.971 1.369 4.053 2.587 5.941 4.046 2.182 1.69 4.28 3.442 6.318 5.294-4.763 4.88-9.381 9.881-14.301 14.605.285-.255.57-.51.849-.784-.441.413-.877.814-1.318 1.227a82.091 82.091 0 0 1-3.53 2.99c-1.039.826-2.159 1.517-3.309 2.18-2.355 1.13-4.734 2.093-7.245 2.813-2.359.475-4.747.667-7.159.692-1.81-.145-3.553-.473-5.307-.934a46.37 46.37 0 0 1-1.259-.423c-.748-.265-1.448-.636-2.125-1.025-2.634-1.794-5.119-3.79-7.599-5.799-1.969-1.594-3.823-3.35-5.6-5.185-1.144-1.28-2.253-2.575-3.415-3.849 2.62-5.202 4.08-10.954 4.89-16.713.595-4.237.552-8.476.015-12.723a5.026 5.026 0 0 0 2.413-.849Zm53.455 245.739c-8.448 7.772-17.22 15.127-26.562 21.787-5.705-5.077-11.527-10.021-17.664-14.58-3.562-2.637-7.455-4.882-11.218-7.197l-1.478-.919c3.592-.689 7.193-1.43 10.798-2.056 5.259-.921 10.546-1.715 15.856-2.214 5.484-.536 10.976-.997 16.452-1.578 5.267-.562 10.488-1.4 15.771-1.869 2.607-.236 5.216-.414 7.826-.563a1491.069 1491.069 0 0 0-9.781 9.189Zm603.054-44.871c-.046.007-.109.022-.155.029-.029.001-.034.013-.063.015.08-.021.143-.035.218-.044ZM.024 96.639a91.573 91.573 0 0 0 .056 5.921c.093 2.102.29 4.165.545 6.254.218 1.76.581 3.515.875 5.266.612 3.826 1.05 7.66 1.488 11.494.47 3.89 1.1 7.71 1.914 11.528.863 3.996 1.97 7.889 3.143 11.797 1.039 3.478 1.95 6.955 2.82 10.458 1.171 5.81 2.244 11.648 3.04 17.532.383 2.914.783 5.821 1.183 8.728.595 4.401 1.273 8.84 1.29 13.294a14.963 14.963 0 0 1-.224 1.86c-.182.501-.37.985-.588 1.469-.972 2.164.019 4.768 2.183 5.74 1.572.706 3.391.357 4.623-.709.024.579.048 1.158.05 1.756-.35 6.094-.843 12.194-.64 18.323.081 2.92.22 5.838.354 8.768.094 1.974.17 3.926.582 5.887.224 1.053.504 2.074.83 3.087.304.875.87 1.797 1.321 2.596a27.54 27.54 0 0 0 2.311 3.524c2.471 3.325 5.128 6.521 7.914 9.619-1.048 1.448-1.12 3.475-.053 4.992 1.257 1.757 2.306 3.692 3.377 5.579 1.755 3.402 3.243 6.954 4.685 10.514.744 1.825 1.464 3.669 2.367 5.424 1.128 2.14 2.3 4.244 3.576 6.308 1 1.6 2.053 3.181 3.087 4.739a57.17 57.17 0 0 0 1.898 2.67c.742.973 1.615 1.877 2.48 2.734 2.852 2.857 6.375 5.107 10.02 6.8l.224.101c1.998.897 4.144 1.562 6.199 2.3 2.257.829 4.517 1.616 6.778 2.404 4.303 1.492 8.612 3 12.96 4.299-.065-.015-.136-.047-.212-.067 1.1.337 2.203.663 3.296.983l.012.005c.064.015.129.03.2.061.868.248 1.744.514 2.62.779a19.606 19.606 0 0 1-.835-.261c.359.118.723.225 1.087.332-.024-.011-.047-.022-.065-.015.117.024.23.06.34.096l-.275-.081c.088.025.188.056.288.086.129.03.264.076.387.118a3.673 3.673 0 0 0-.376-.112c.141.034.294.074.44.126 4.095 1.199 8.208 2.322 12.377 3.227 2.441.542 4.894.934 7.374 1.265.945.553 1.896 1.093 2.824 1.652 4.816 3.199 9.593 6.452 14.254 9.867 4.788 3.513 8.988 7.672 13.444 11.576 2.222 1.95 4.688 3.64 7.086 5.356a117.396 117.396 0 0 1 6.833 5.256c2.314 1.934 4.595 3.91 7.038 5.717 2.279 1.663 4.646 3.194 7.031 4.719 1.377.889 2.716 1.831 4.087 2.731.313.254.646.46 1.001.62.355.159.731.271 1.116.33.818.14 1.642.013 2.4-.314.438.892.858 1.791 1.318 2.666.902 1.726 1.861 3.449 2.677 5.208.79 1.69 1.477 3.419 2.198 5.135 1.787 4.312 3.572 8.849 6.617 12.447 1.892 2.241 4.147 4.021 6.588 5.643 1.885 1.244 3.873 2.449 5.894 3.485 2.229 1.143 4.513 2.196 6.795 3.221 1.312.589 2.63 1.167 3.943 1.756 7.541 3.329 15.074 6.584 22.862 9.299 16.325 5.697 32.966 10.469 49.763 14.544 16.581 4.05 33.18 7.966 49.805 11.793 5.172 1.2 10.349 2.36 15.494 3.59 4.74 1.12 9.414 2.451 14.072 3.818 10.788 3.409 21.529 6.953 32.577 9.498 4.973 1.139 9.996 2.102 15.023 2.995 4.921.874 9.727 2.038 14.533 3.358 7.965 2.482 15.804 5.306 23.639 8.141 8.034 2.897 16.116 5.688 24.258 8.25 16.776 5.259 33.839 9.724 51.026 13.406 8.775 1.88 17.519 3.86 26.223 5.993 8.347 2.042 16.704 4.062 25.108 5.818 8.411 1.773 16.85 3.388 25.434 3.89 8.927.528 17.887.857 26.833.583 4.351-.134 8.71-.223 13.052-.589 4.463-.383 8.924-.795 13.385-1.236 8.487-.835 17.033-1.387 25.479-2.667 17.146-2.587 34.147-5.992 51.177-9.27 8.242-1.585 16.546-2.928 24.792-4.553 8.637-1.705 17.327-3.117 25.961-4.752 8.795-1.677 17.566-3.365 26.297-5.312 8.329-1.872 16.612-3.992 24.878-6.105 11.285-2.889 22.462-6.167 33.566-9.634 2.612-.816 3.824-4.023 2.899-6.455-1.01-2.656-3.85-3.704-6.445-2.894-5.469 1.707-10.936 3.472-16.454 4.972a908.474 908.474 0 0 1-14.519 3.823c-7.968 1.892-15.951 3.692-23.964 5.337-8.364 1.699-16.795 3.071-25.212 4.477-8.591 1.413-17.221 2.596-25.783 4.165-4.347.79-8.701 1.563-13.054 2.335-3.958.681-7.92 1.246-11.863 1.991-8.686 1.626-17.363 3.356-26.07 4.901-8.184 1.455-16.388 2.956-24.617 4.163-8.96 1.318-17.969 2.047-26.993 2.811-8.452.723-16.863 1.45-25.349 1.618-4.967.113-9.918.064-14.882-.019-8.298-.317-16.62-.672-24.831-2.1-8.772-1.538-17.451-3.474-26.152-5.392-8.478-1.875-16.895-4.077-25.381-5.969-8.702-1.947-17.424-3.817-26.092-5.905-9.798-2.353-19.512-5.053-29.195-7.852a790.88 790.88 0 0 1-21.147-6.824c-7.362-2.496-14.623-5.216-21.949-7.824-7.414-2.632-14.883-5.205-22.541-7.009-3.662-.863-7.334-1.702-10.984-2.56-3.932-.927-7.833-1.954-11.745-2.986-8.238-2.506-16.389-5.27-24.607-7.852-8.371-2.622-16.916-4.57-25.438-6.634-4.038-.975-8.078-2.008-12.152-2.871-4.197-.904-8.421-1.749-12.616-2.723-8.575-1.976-17.168-3.944-25.775-5.82-9.584-2.101-19.209-4.05-28.695-6.562-9.58-2.554-19.215-5.019-28.767-7.731a191.654 191.654 0 0 1-16.67-6.036c-5.579-2.32-11.104-4.73-16.336-7.761-2.015-1.302-3.941-2.678-5.675-4.352a25.778 25.778 0 0 1-1.683-2.361c-1.47-2.99-2.599-6.14-3.739-9.266-1.334-3.61-2.981-7.063-4.611-10.551-1.673-3.522-3.277-7.069-4.96-10.567-1.817-3.77-3.769-7.46-5.716-11.161-2.048-3.889-4.097-7.806-6.06-11.756-1.705-3.48-3.15-7.097-4.6-10.703-3.121-7.795-5.839-15.792-9.462-23.386-2.5-5.256-5.539-10.258-8.339-15.35-2.676-4.896-5.418-9.736-8.094-14.631-2.59-4.927-5.123-9.886-7.315-15.004-1.098-2.554-2.082-5.141-3.226-7.657-1.202-2.671-2.632-5.245-3.868-7.903-2.581-5.548-5.303-11.004-8.282-16.362-2.553-4.599-5.622-8.903-8.26-13.469-.537-1.179-.94-2.369-1.305-3.612a27.908 27.908 0 0 1-.485-4.395c.279-3.881.971-7.605 2.004-11.331.84-2.408 1.749-4.685 2.978-6.918 1.521-2.215 3.208-4.327 5.137-6.217 1.973-1.927 3.959-3.82 5.956-5.736 3.711-3.548 7.111-7.292 9.99-11.554 1.546-2.303 2.925-4.71 4.026-7.256 1.143-2.641 1.958-5.5 2.63-8.295.699-2.854 1.293-5.727 1.863-8.611a178.918 178.918 0 0 1 3.314-13.614c1.38-4.054 2.843-8.072 4.564-12.001 1.691-3.829 3.673-7.514 5.725-11.167 4.034-7.182 8.08-14.358 12.287-21.448 3.541-5.64 7.246-11.138 11.583-16.209a464.877 464.877 0 0 1 6.288-7.234c.104.117.197.258.3.376.914 1.035 1.871 2.005 2.939 2.854a10.807 10.807 0 0 0 2.291 1.384c1.194.536 2.479.871 3.755 1.004 1.706.155 3.452.001 5.143-.22 1.119-.151 2.232-.447 3.312-.7a45.506 45.506 0 0 0 3.859-1.095 114.57 114.57 0 0 0 6.457-2.357c4.377-1.743 8.548-3.976 12.702-6.202 3.876-2.082 7.769-4.17 11.215-6.94 2.167-1.756 3.862-3.95 5.301-6.3.028.95.051 1.911.062 2.868a51.2 51.2 0 0 1-.586 5.292c-.306 1.98-.84 3.927-1.368 5.864-.959 3.021-2.068 5.933-3.605 8.724-1.512 2.261-3.168 4.43-4.753 6.63-2.1 2.937-3.984 6.026-5.863 9.103-2.993 4.893-5.771 9.91-8.705 14.83-3.01 4.616-6.383 8.997-9.844 13.254-1.728 2.108-3.432 4.226-5.071 6.389-1.38 1.809-2.664 3.719-4.141 5.457a4.227 4.227 0 0 0-.468.031c-2.802-.278-5.575-.812-8.338-1.272-3.148-.518-6.244-1.028-9.426-.524-3.164.497-5.759 2.699-6.255 5.957-.488 3.176 1.249 6.172 4.103 7.539 3.434 1.655 7.169 2.196 10.874 2.837 1.712.3 3.407.606 5.124.865a71.6 71.6 0 0 0-2.079 4.536c-1.962 4.845-3.671 9.789-5.35 14.732-1.698 5.048-3.191 10.145-4.813 15.213-.821 2.587-1.771 5.115-2.745 7.633-.944 2.417-2.078 4.721-3.246 7.038-.396.788-.881 1.551-1.36 2.302.119-.203.233-.393.364-.59a284.91 284.91 0 0 1-1.841 2.74c-1.408 2.123-3.085 4.055-4.897 5.842-2.434 2.132-5.063 3.935-7.805 5.644a65.635 65.635 0 0 1-2.634 1.531c-1.399.807-2.767 1.67-4.161 2.465-1.87 1.064-2.783 3.666-2.559 5.698a6.155 6.155 0 0 0 1.114 2.93c.672.941 1.485 1.534 2.42 1.953.52.234 1.078.413 1.677.568 2.474.628 5.089-.101 7.315-1.261a106.732 106.732 0 0 0 4.736-2.605c3.647-2.141 6.885-4.892 9.895-7.831.402-.388.773-.804 1.145-1.219 4.289 4.909 8.683 9.709 12.76 14.807 2.466 3.082 4.588 6.393 6.695 9.74a418.649 418.649 0 0 1 5.947 9.759 96.464 96.464 0 0 1 2.553 5.295c.846 1.914 1.583 3.879 2.264 5.875a288.69 288.69 0 0 1 3.976 12.568c.416 1.92.797 3.825 1.116 5.772.361 2.108.59 4.257.836 6.399.473 4.261.726 8.509.794 12.787-.087 1.681-.173 3.361-.336 5.021-.259 2.412-.513 4.813-.796 7.215-.264 2.14-.507 4.261-.742 6.4-.304 3.018-.664 6.351.483 9.239a5.319 5.319 0 0 0 2.761 2.901 5.142 5.142 0 0 0 2.64.418c2.287-.251 4.282-2.069 4.58-4.379.223-1.604.668-3.195.967-4.779.287-1.463.522-2.934.756-4.406.487-3.077.945-6.153 1.338-9.244a89.06 89.06 0 0 0 .706-10.75c2.335 1.446 4.663 2.875 7.002 4.309 6.173 3.879 12.195 8.061 18.182 12.226 3.428 2.364 6.712 4.861 9.954 7.481 2.995 2.411 5.705 5.204 8.373 7.965a223.917 223.917 0 0 1 4.151 4.677c.946 1.121 1.964 2.018 3.206 2.576a7.528 7.528 0 0 0 1.832.538c1.968.301 4.002-.178 5.601-1.335a7.585 7.585 0 0 0 3.108-5.054c.064-.397.094-.81.083-1.199a286.35 286.35 0 0 0 21.671-16.936c7.207-6.211 14.188-12.708 21.212-19.144.85-.784 1.682-1.561 2.531-2.345 2.26-.065 4.52-.13 6.774-.183 1.322-.032 2.444-.792 3.172-1.843 1.805 4.049 3.514 8.155 5.25 12.231 2.559 6.008 5.016 12.055 7.603 18.032 3.288 7.614 6.849 15.094 10.461 22.555.56 1.189 1.271 2.105 2.501 2.657a4.79 4.79 0 0 0 3.659.109c2.262-.86 3.885-3.811 2.761-6.148-3.277-6.785-6.594-13.573-9.466-20.531-2.655-6.363-5.156-12.786-7.652-19.22-2.421-6.286-4.818-12.591-7.422-18.817-2.468-5.896-5.181-11.689-7.762-17.522-2.65-5.963-4.901-12.088-7.569-18.045-2.912-6.521-6.608-12.656-10.167-18.843-3.346-5.807-6.595-11.67-9.811-17.546-3.16-5.809-6.533-11.429-10.22-16.92-2.139-3.177-4.307-6.324-6.474-9.471-2.199-3.203-4.69-6.169-7.265-9.072-2.6-2.943-5.307-5.807-7.919-8.755-3.078-3.428-6.1-6.888-9.246-10.261.431.464.851.922 1.282 1.386-3.911-4.2-7.711-8.52-11.415-12.897-3.351-3.962-6.314-8.248-8.92-12.728-2.555-4.372-5.11-8.744-7.586-13.166-1.134-2-2.245-4.02-3.418-5.995-1.392-2.373-2.61-4.852-4.155-7.137-.236-.361-.539-.668-.847-.963.796-1.361 1.603-2.746 2.423-4.097.718-1.127 1.456-2.23 2.198-3.346.031.056.075.119.106.175.969 1.544 2.245 2.912 3.466 4.242 2.76 3.029 5.774 5.874 9.056 8.342 1.832 1.362 3.814 2.707 5.907 3.647.249.111.49.206.727.312 2.123.84 4.559 1.365 6.837 1.606 2.185.229 4.405.316 6.604.039a61.014 61.014 0 0 0 6.133-1.096c1.762-.445 3.463-.974 5.122-1.693 2.063-.892 4.05-1.932 6.012-3.011 3.243-1.812 6.069-4.435 8.669-7.061 4.937-5.015 9.572-10.307 14.461-15.371a200.9 200.9 0 0 1 4.536 4.58c2.043 2.38 3.994 4.805 5.97 7.24 2.244 2.755 4.656 5.358 7.09 7.943 4.031 4.282 8.156 8.478 12.175 12.755 3.695 4.017 7.327 8.048 10.74 12.28 1.744 2.161 3.403 4.384 5.022 6.631 1.565 2.18 2.903 4.485 4.212 6.821 2.422 4.639 4.848 9.266 7.326 13.873a75.773 75.773 0 0 1-.723-1.333c1.774 3.453 3.354 6.961 4.912 10.516 1.628 3.715 3.535 7.284 5.532 10.809 3.679 6.553 8.404 12.454 13.389 18.059 2.636 2.959 5.546 5.687 8.42 8.398a444.871 444.871 0 0 0 8.909 8.29c6.039 5.411 12.015 10.865 17.815 16.523 5.46 5.307 10.686 10.851 16.169 16.139 5.247 5.084 10.892 9.664 16.461 14.381 2.844 2.399 5.61 4.877 8.426 7.307 2.661 2.302 5.38 4.504 8.041 6.807 2.786 2.401 5.55 4.821 8.43 7.109 2.951 2.32 5.873 4.64 8.757 7.015 3.13 2.584 6.407 4.937 9.669 7.325 3.442 2.554 6.693 5.377 9.777 8.381 1.573 1.559 3.08 3.202 4.654 4.761 1.893 1.859 4.127 3.245 6.409 4.554 1.689.986 3.596 1.643 5.465 2.227 1.998.613 4.012 1.19 6.038 1.773 2.662.812 5.338 1.686 7.88 2.828 3.056 1.358 5.966 2.977 8.855 4.644a95.652 95.652 0 0 1 7.243 5.198c2.658 2.117 5.178 4.385 7.836 6.502a108.717 108.717 0 0 0 8.119 5.776c3.221 2.1 6.54 4.201 10.063 5.783l.201.09c3.062 1.346 6.316 2.168 9.655 2.517 1.649.186 3.312.279 4.969.356 3.563.165 7.132.318 10.698.413 7.056.171 14.122.317 21.177.459 2.033.06 4.079.155 6.114.245 2.656.127 5.362.333 8.011.13 3.002-.229 6.126-.858 8.864-2.115 2.584-1.198 4.966-2.927 7.233-4.622 3.809-2.851 7.459-5.886 11.281-8.702 3.951-2.914 8.025-5.531 12.274-7.97 2.959-1.527 5.915-2.985 8.956-4.347 3.161-1.408 6.405-2.651 9.655-3.876 7.312-2.741 14.733-5.219 22.103-7.806 6.708-2.344 13.343-4.877 20.171-6.855 7.234-2.093 14.517-3.98 21.84-5.764 8.163-1.79 16.317-3.527 24.482-5.288 8.176-1.785 16.235-3.977 24.339-6.077a1513.168 1513.168 0 0 1 45.236-9.992c16.227-3.327 32.347-7.014 48.439-10.955a845.291 845.291 0 0 0 27.631-7.27c4.295-1.211 8.537-2.56 12.781-3.879 2.199-.689 4.404-1.39 6.616-2.044 2.597-.752 5.399-1.298 7.846-2.444 1.349-.631 2.405-1.464 3.031-2.859a5.422 5.422 0 0 0 .122-4.164c-1.048-2.73-4.267-4.261-7.023-3.154-2.169.873-4.452 1.496-6.685 2.198-2.112.686-4.237 1.337-6.368 2-4.473 1.387-8.956 2.826-13.476 4.064-9.194 2.535-18.425 4.868-27.676 7.15-15.412 3.693-30.879 7.161-46.423 10.326-15.475 3.138-30.931 6.328-46.303 9.996-5.647 1.343-11.267 2.911-16.909 4.369-7.417 1.742-14.856 3.374-22.315 4.955-8.183 1.738-16.31 3.701-24.409 5.79-7.576 1.968-14.996 4.348-22.366 6.934-7.079 2.476-14.182 4.941-21.254 7.434a411.633 411.633 0 0 0-16.068 6.041c-4.902 1.961-9.649 4.305-14.315 6.756-5.053 2.647-9.786 5.75-14.441 9.03-3.99 2.811-7.893 5.775-12.123 8.266a16.61 16.61 0 0 1-1.666.673c-2.799.476-5.604.552-8.453.537-3.261-.015-6.525-.088-9.797-.08-6.45.031-12.905.073-19.366-.029a340.663 340.663 0 0 1-7.683-.325c-3.571-.211-7.164-.375-10.666-1.18-2.668-.957-5.126-2.287-7.559-3.735-4.293-2.78-8.389-5.841-12.354-9.098-4.296-3.563-8.596-7.057-13.338-10.038-2.764-1.724-5.587-3.347-8.485-4.804-2.324-1.186-4.78-2.076-7.219-2.972-2.397-.863-4.825-1.627-7.249-2.431a43.758 43.758 0 0 1-6.792-2.879 28.81 28.81 0 0 1-2.829-2.179c-1.512-1.347-2.924-2.791-4.374-4.181-2.518-2.366-5.216-4.586-7.96-6.671-2.864-2.195-5.86-4.194-8.774-6.312-2.806-2.041-5.462-4.257-8.191-6.376-2.949-2.291-5.932-4.54-8.811-6.926-2.811-2.314-5.569-4.717-8.419-6.976-5.827-4.648-11.504-9.471-17.337-14.107-10.333-8.219-19.567-17.651-29.074-26.792a746.16 746.16 0 0 0-15.172-14.214 400.748 400.748 0 0 1-15.25-14.704 144.893 144.893 0 0 1-9.996-12.23c-2.885-3.953-5.404-8.152-7.753-12.446-1.477-3.007-2.819-6.096-4.359-9.089-1.881-3.658-3.926-7.204-6-10.749-1.912-3.274-3.71-6.61-5.724-9.815-1.925-3.053-4.057-5.9-6.36-8.681-4.876-5.912-10.064-11.509-15.45-16.981-5.083-5.166-10.277-10.212-15.359-15.378-2.421-2.678-4.746-5.412-7.049-8.194-2.583-3.106-5.464-5.962-8.331-8.784-2.627-2.6-5.316-5.186-8.086-7.623-3.004-2.613-6.147-4.948-9.46-7.16-3.264-2.19-6.413-4.513-9.519-6.93-2.95-2.29-5.96-4.509-8.905-6.811-3.747-2.92-7.375-6.011-11.808-7.845a26.575 26.575 0 0 0-5.549-1.597c-1.648-.285-3.348-.011-4.951.363-3.729.868-6.97 2.865-10.156 4.93-.514.323-1.022.663-1.525.991-.258-1.323-.539-2.628-.918-3.935-.503-1.76-.974-3.591-1.774-5.257-.775-1.598-1.586-3.241-2.711-4.627-1.222-1.487-2.55-2.864-4.045-4.061-2.129-1.68-4.501-2.632-7.123-3.184-.407-.012-.814-.024-1.208-.031a7.52 7.52 0 0 0-2.692.14c-1.367.197-2.693.681-3.961 1.163-2.158.821-4.246 2.086-6.267 3.167-3.637 1.962-7.156 4.104-10.662 6.28-3.63 2.263-7.304 4.463-10.803 6.94-7.055 5.017-13.764 10.372-20.023 16.37-3.041 2.91-5.832 6.09-8.68 9.172a254.533 254.533 0 0 0-8.204 9.444c-2.507 3.05-4.78 6.406-6.91 9.726-2.521 3.968-4.994 7.958-7.367 12.007-4.196 7.194-8.58 14.332-12.343 21.763-3.372 6.655-6.182 13.704-8.102 20.925-.899 3.362-1.745 6.733-2.408 10.171-.787 4.065-1.505 8.132-2.568 12.144-.947 2.9-2.139 5.618-3.676 8.252a62.578 62.578 0 0 1-5.402 7.093c-2.198 2.522-4.577 4.878-6.944 7.239-2.25 2.257-4.371 4.544-6.344 7.039-3.755 4.693-5.84 10.476-7.382 16.22-.798 2.98-1.357 5.997-1.576 9.08a48.876 48.876 0 0 0-.045 5.89c.104 1.922.603 3.879 1.068 5.722.238.959.549 1.88.901 2.805a22.772 22.772 0 0 0-2.291-.943c-2.189-.756-4.435-1.039-6.701-1.119.159-1.904.253-3.822.173-5.733-.053-1.274-.072-2.561-.166-3.839-.166-2.604-.379-5.2-.62-7.794-.449-4.762-1.336-9.493-2.383-14.155-1.136-4.97-2.41-9.947-3.15-15.009-.765-5.132-1.084-10.276-1.334-15.445-.24-4.782-.279-9.601-.952-14.336-.223-1.592-.628-3.252-1.343-4.666-.922-1.807-2.108-3.248-3.58-4.62a7.276 7.276 0 0 0-.74-.601c2.127-5.084 4.23-10.149 6.221-15.278 1.236-3.196 2.542-6.389 3.512-9.689.815-2.732 1.612-5.457 2.296-8.246 1.4-5.808 2.917-11.59 4.574-17.339 1.719-5.948 3.456-11.873 4.893-17.891a151.81 151.81 0 0 0 1.74-8.368c.377-2.075.594-4.109.54-6.236-.031-1.733-.675-3.528-1.311-5.149-.456-1.199-1.122-2.436-1.76-3.546-1.513-2.612-3.201-5.117-4.816-7.66-1.49-2.346-2.929-4.71-4.413-7.04-3.03-4.798-6.241-9.578-9.941-13.868a46.736 46.736 0 0 0-3.465-3.644c-1.6-1.5-3.629-2.709-5.603-3.596-4.66-2.091-10.025-.835-14.714.526-2.55.744-5.02 1.78-7.42 2.919-1.474.688-2.901 1.524-4.294 2.348-1.625.961-2.968 2.305-4.336 3.58-1.451 1.366-2.697 2.937-3.806 4.585a39.21 39.21 0 0 0-2.729 4.812c-.891 1.859-1.434 3.86-2.02 5.827-.38 1.321-.7 2.669-.964 4.014a167.253 167.253 0 0 0-1.578 9.18c-.432 2.86-.67 5.764-1.02 8.633-.337 2.932-.778 5.845-1.184 8.774-.71 4.967-1.682 9.886-2.69 14.79a9.162 9.162 0 0 0-1.082-.913c-1.171-.81-2.52-1.16-3.947-1.147-2.383.024-4.71.712-6.906 1.616-1.894.769-3.758 1.85-5.474 2.983-1.625 1.089-3.227 2.188-4.76 3.389a50.393 50.393 0 0 0-3.888 3.34c-.981.952-1.73 2.08-2.435 3.24-.761 1.221-1.434 2.467-1.924 3.81C.262 90.382.07 93.534.024 96.64Z"/></svg>