<svg xmlns="http://www.w3.org/2000/svg" width="1801" height="1470" fill="none"><path fill="#ED9AC9" stroke="#0007B0" stroke-width="12" d="M1037.16 1243.73c25.95 89.47 33.44 126.24 38.98 134.95 312.36-88.03 547.4-189.5 695.05-475.146l-142.65-59.325-59.15-70.302c-13.82-21.364-50.85-71.377-88.39-100.518-37.55-29.142-107.29-5.774-137.47 9.553-12.81 5.024-44.37 28.881-68.16 84.112-29.73 69.038-17.12 73.122-34.7 104.109-17.58 30.987-27.91 24.263-51.55 3.582-23.63-20.681-52.13-75.751-111.28-146.054-47.32-56.242-65.21-86.418-68.23-94.476-28.096-49.31-64.038-127.586-83.762-215.868-16.15-72.283-5.314-111.959-12.744-183.376-5.943-57.133-19.578-101.858-23.141-111.161-14.691-38.356-30.158-56.823-58.225-61.382-62.592-10.167-122.206 87.246-126.442 163.821-.912 30.67-29.009 218.804 43.81 386.382 91.024 209.473 121.082 216.065 166.706 304.671 61.897 109.798 88.908 214.578 121.348 326.428Z"/><path fill="#ED9AC9" d="M1467.99 665.911s13.4-128.322 73.76-163.253c43.1-24.945 77.29-7.261 126.82-11.914-3.77-54.307 29.62-70.684 46.79-72.083 14.89 62.761 17.22 98.243 16.8 161.921-.86 137.162-16.85 206.748-64.57 321.983l-53.95-75.315-53.22-64.823-92.43-96.516Z"/><path stroke="#0007B0" stroke-width="12" d="M1668.57 490.744c-49.53 4.653-83.72-13.031-126.82 11.914-60.36 34.931-73.76 163.253-73.76 163.253l92.43 96.516 53.22 64.823 53.95 75.315c47.72-115.235 63.71-184.821 64.57-321.983m-63.59-89.838c24.84 35.084 38.76 54.754 63.59 89.838m-63.59-89.838c-3.77-54.307 29.62-70.684 46.79-72.083 14.89 62.761 17.22 98.243 16.8 161.921M1336.5 891.21s44.39 59.523 86 101.341m95.84 90.209s-60.34-54.54-95.84-90.209m0 0c-74.06 25.889-111.61 14.849-173.49-44.906"/><path fill="#FF5262" stroke="#0007B0" stroke-width="12" d="M794.642 182.856c27.83-36.667 24.411-94.66 19.222-119.075-4.118-2.83-48.31 11.404-78.633 60.242-22.92 36.915-28.605 99.121-28.605 99.121 3.207-.959 53.228 5.546 88.016-40.288Z"/><path fill="#0007B0" stroke="#0007B0" stroke-width="12" d="m974.601 1053.35-114.656 337.87s-345.672 112.71-500.414-32.31C196.414 1206.04 35.045 688.127 35.045 688.127c13.814-14.189 125.935-69.359 143.906-80.53 22.463-13.963 54.29-17.415 79.096-15.418 24.805 1.997 75.017 14.63 119.189 135.583 1.731-4.668 10.845-17.869 33.451-33.33 28.257-19.327 53.175-33.461 94.366-26.402 41.191 7.06 43.619 24.254 66.115 46.255 22.495 22.001 39.83 93.969 58.57 221.649 1.707 30.474 11.423 96.936 36.637 118.996 39.005-53.97 122.551-181.651 144.693-260.58C858 657.761 840.942 691.817 895.076 547.911c2.642-27.055 24.922-85.075 16.513-135.092-10.512-62.52-13.635-211.746 1.085-250.6 14.72-38.854 55.388-48.197 69.269-45.9 13.88 2.296 58.087 21.698 73.507 97.209 19.07 85.077 50.75 302.099 19.88 496.727L974.601 1053.35Z"/><path fill="#FF5262" stroke="#0007B0" stroke-width="12" d="M1009.48 261.739c-17.61-16.327-31.34-15.574-35.405-145.753 0 0 36.835-4.059 60.865 31.521 24.03 35.581 31.54 127.627 31.54 127.627-13.85 3.709-41.66.829-57-13.395Z"/><path stroke="#ED9AC9" stroke-width="12" d="M375.312 747.107s1.404 92.101-.919 163.803c-2.864 88.376-13.277 226.02-13.277 226.02M666.746 1053.67c-15.91 62.12-25.788 152.47-28.738 189.89"/></svg>