<svg xmlns="http://www.w3.org/2000/svg" width="688" height="880" fill="none"><path fill="#0007B0" stroke="#0007B0" stroke-width="12" d="m576.167 647.292-94.439 225.544s-233.322-59.69-332.226-166.19C45.245 594.382 7 340.349 7 340.349c10.119-9.044 33.56-28.829 46.377-35.612 16.02-8.479 37.944-9.327 54.808-6.784 16.864 2.544 50.593 13.567 75.046 98.358 1.405-3.109 8.263-11.701 24.453-21.198 20.237-11.87 37.944-20.35 65.77-13.566 27.826 6.783 28.669 18.654 43.004 34.764 14.335 16.11 22.767 66.137 29.513 154.32-.281 20.915 3.204 66.815 19.394 83.095 29.231-35.047 92.415-118.369 111.303-171.278 38.577-91.154 25.296-68.681 69.143-164.495 3.092-18.371 21.081-56.979 17.708-91.574-4.216-43.243.738-145.414 12.648-171.279 11.91-25.864 40.158-30.32 49.538-28.09 9.381 2.23 38.683 17.594 45.639 69.953 8.994 59.071 20.343 208.949-10.013 340.545l-85.164 229.784Z"/><path fill="#FF5262" stroke="#0007B0" stroke-width="12" d="M637.329 111.957c-11.263-12-20.686-12.137-17.28-101.331 0 0 25.38-1.025 40.116 24.442 14.737 25.468 15.5 88.754 15.5 88.754-9.649 1.878-28.524-1.412-38.336-11.865Z"/><path stroke="#ED9AC9" stroke-width="12" d="M180.996 409.445s-3.416 63.034-8.411 111.945c-6.157 60.285-19.815 153.896-19.815 153.896M365.678 632.88c-13.828 41.717-24.874 103.021-28.669 128.458"/></svg>