<svg xmlns="http://www.w3.org/2000/svg" width="711" height="927" fill="none"><path fill="#ED9AC9" stroke="#0007B0" stroke-width="12" d="M195.739 825.419c13.492 62.407 16.864 87.899 20.237 94.117 217.736-45.347 312.147-108.49 426.664-296.767l-23.61-42.396-37.101-50.874c-8.432-15.263-31.367-51.214-55.652-72.922-24.284-21.707-73.078-9.044-94.439 0-8.994 2.827-31.705 17.638-50.593 54.268-23.61 45.787-15.178 49.178-28.669 69.528-13.491 20.35-20.237 15.263-35.415 0-15.178-15.262-32.042-54.266-69.143-105.141-29.681-40.699-40.474-62.18-42.16-67.833-16.865-35.047-37.718-90.27-47.009-151.564-7.607-50.185 1.686-76.796 0-125.975-1.349-39.343-8.547-70.569-10.54-77.098-8.222-26.921-17.919-40.282-36.891-44.732-42.31-9.924-87.695 53.842-94.23 105.994-2.08 20.925-30.227 148.213 11.596 266.242 52.28 147.537 72.516 153.472 99.499 216.218 37.101 78.007 50.592 150.928 67.456 228.935Z"/><path fill="#ED9AC9" d="M517.74 450.848s15.259-87.095 58.181-108.109c30.652-15.007 53.191-1.292 87.272-2.12 0-37.308 23.61-46.918 35.415-47.059 7.194 43.616 7.102 67.985 3.795 111.5-7.111 93.734-21.349 140.549-59.447 217.066l-33.306-54.055-33.307-46.847-58.603-70.376Z"/><path stroke="#0007B0" stroke-width="12" d="M663.193 340.619c-34.081.828-56.62-12.887-87.272 2.12-42.922 21.014-58.181 108.109-58.181 108.109l58.603 70.376 33.307 46.847 33.306 54.055c38.098-76.517 52.336-123.332 59.447-217.066m-39.21-64.441 39.21 64.441m-39.21-64.441c0-37.308 23.61-46.918 35.415-47.059 7.194 43.616 7.102 67.985 3.795 111.5M415.615 620.509s27.519 42.804 53.983 73.371m61.236 66.229s-38.661-40.154-61.236-66.229m0 0c-51.864 14.181-77.011 4.851-116.479-38.944"/><path fill="#FF5262" stroke="#0007B0" stroke-width="12" d="M85.195 88.334c20.769-23.746 21.187-63.558 18.8-80.495-2.681-2.131-33.57 5.5-56.622 37.45C29.949 69.44 21.3 111.571 21.3 111.571c2.238-.503 37.934 6.446 63.895-23.237Z"/></svg>